<?xml version="1.0" standalone="no"?>
<!DOCTYPE svg PUBLIC "-//W3C//DTD SVG 20010904//EN"
 "http://www.w3.org/TR/2001/REC-SVG-20010904/DTD/svg10.dtd">
<svg version="1.0" xmlns="http://www.w3.org/2000/svg"
 width="1920.000000pt" height="1920.000000pt" viewBox="0 0 1920.000000 1920.000000"
 preserveAspectRatio="xMidYMid meet">
<metadata>
Created by potrace 1.14, written by Peter Selinger 2001-2017
</metadata>
<g transform="translate(0.000000,1920.000000) scale(0.100000,-0.100000)"
fill="#000000" stroke="none">
<path d="M8529 19127 c-115 -101 -209 -218 -287 -360 -109 -196 -172 -488
-159 -737 30 -548 309 -1085 698 -1340 109 -72 218 -115 341 -135 396 -64 664
77 788 415 66 182 83 392 42 542 -29 107 -110 275 -136 282 -11 3 -21 4 -23 2
-2 -2 22 -52 52 -112 78 -156 99 -247 92 -399 -20 -408 -215 -662 -542 -706
-174 -23 -386 18 -537 104 -359 206 -632 643 -720 1152 -17 102 -19 148 -15
305 3 115 11 212 21 255 68 302 210 539 436 729 83 70 88 76 62 76 -22 0 -50
-18 -113 -73z"/>
<path d="M16066 19141 c-14 -32 -26 -76 -26 -98 0 -49 35 -156 68 -205 13 -20
21 -41 18 -46 -3 -6 -29 -22 -58 -37 -60 -30 -88 -58 -88 -87 0 -22 194 -401
218 -424 23 -24 74 -15 150 25 l73 39 16 -25 c12 -19 18 -21 25 -11 6 9 7 6 3
-8 -7 -28 45 -144 87 -190 38 -41 94 -72 121 -66 16 3 186 83 239 112 10 6 61
34 115 64 54 29 109 57 123 61 14 4 36 16 50 26 14 9 86 49 160 87 189 97 191
98 183 106 -4 4 0 4 10 0 11 -4 35 5 64 24 27 17 68 40 93 51 25 11 86 43 135
70 50 27 114 62 143 77 28 16 52 32 52 37 0 4 5 5 10 2 6 -3 36 10 68 29 31
20 65 36 74 36 8 0 38 15 64 33 27 18 62 39 78 47 46 23 124 102 131 132 5 20
1 37 -14 60 -11 18 -33 57 -48 85 l-27 53 -1142 0 -1141 0 -27 -59z"/>
<path d="M9635 19101 c-170 -97 -265 -255 -265 -438 0 -158 47 -284 185 -498
46 -71 111 -174 146 -227 43 -68 68 -98 81 -98 13 0 17 4 12 13 -4 6 -68 107
-142 222 -234 362 -285 514 -237 700 32 119 125 233 249 305 31 17 56 36 56
41 0 17 -35 9 -85 -20z"/>
<path d="M10462 19102 c-8 -2 -71 -43 -140 -91 -70 -48 -158 -109 -197 -135
-84 -58 -115 -90 -115 -119 0 -30 106 -186 133 -196 82 -31 406 -69 629 -74
81 -2 150 -6 154 -9 10 -10 -30 -120 -45 -126 -8 -3 -119 0 -245 7 -207 11
-334 24 -609 62 -78 11 -89 11 -104 -4 -21 -21 -21 -20 127 -46 171 -30 357
-49 589 -61 113 -6 211 -12 218 -13 8 -1 -3 -35 -29 -94 l-41 -93 -56 0 c-192
1 -570 58 -823 125 -69 19 -88 21 -88 10 0 -29 35 -44 177 -78 237 -57 438
-89 656 -103 59 -4 107 -8 107 -9 0 -1 -17 -33 -38 -71 l-37 -69 -48 -3 c-66
-4 -333 23 -507 53 -79 13 -146 22 -148 20 -6 -6 22 -44 36 -50 28 -10 362
-55 492 -65 74 -6 136 -12 138 -14 2 -2 -22 -43 -53 -91 l-57 -88 -97 6 c-53
4 -91 4 -86 2 18 -8 185 -55 196 -55 20 0 173 249 254 415 125 255 232 555
300 848 37 156 37 155 -109 137 -57 -7 -138 -11 -180 -8 -53 4 -82 1 -94 -8
-24 -17 -15 -23 58 -36 46 -8 92 -8 173 1 61 6 112 9 115 7 2 -2 0 -25 -3 -50
-6 -39 -12 -47 -34 -53 -36 -10 -409 -10 -446 0 l-29 8 37 32 37 32 -43 62
c-24 35 -46 65 -49 68 -10 10 -63 22 -76 17z m184 -273 c59 -7 159 -9 247 -5
81 3 147 3 147 -2 0 -4 -6 -27 -14 -52 -16 -55 -23 -57 -202 -59 -139 -1 -306
12 -392 32 l-53 12 63 48 c44 33 69 46 84 43 11 -3 65 -11 120 -17z m-51 -159
c55 -6 167 -10 248 -8 81 2 147 -1 147 -5 0 -5 -7 -34 -16 -64 l-16 -56 -227
6 c-212 6 -365 21 -489 48 -60 12 -61 9 24 79 l58 47 86 -18 c47 -10 130 -23
185 -29z"/>
<path d="M467 19056 c-80 -33 -138 -88 -180 -171 -65 -127 -71 -262 -16 -383
29 -64 104 -139 174 -176 56 -29 67 -31 160 -31 90 0 106 3 159 29 34 17 86
55 121 90 83 83 110 155 109 281 -1 99 -18 151 -75 229 -97 135 -300 194 -452
132z m61 -212 c27 -18 30 -69 5 -96 -25 -28 -77 -24 -98 8 -42 64 30 132 93
88z m242 -4 c43 -43 14 -110 -46 -110 -43 0 -69 35 -59 80 11 51 68 67 105 30z
m-238 -217 c24 -22 23 -62 -4 -90 -28 -30 -62 -29 -87 3 -25 32 -26 52 -5 82
18 27 69 30 96 5z m240 0 c24 -22 23 -62 -4 -90 -28 -30 -62 -29 -87 3 -25 32
-26 52 -5 82 18 27 69 30 96 5z"/>
<path d="M11266 18819 c-3 -8 -15 -52 -26 -98 -27 -107 -115 -367 -170 -500
-83 -203 -201 -421 -310 -577 -36 -52 -39 -59 -23 -66 10 -3 21 -7 25 -7 17
-2 193 287 262 433 99 207 212 514 262 712 16 66 16 72 1 94 -12 18 -18 20
-21 9z"/>
<path d="M6840 18580 c-21 -21 -41 -52 -45 -69 -8 -37 3 -111 16 -111 5 0 9
-6 9 -14 0 -21 51 -67 99 -88 84 -38 163 8 176 103 6 42 3 58 -20 104 -35 73
-77 104 -145 109 -49 3 -54 2 -90 -34z"/>
<path d="M11425 18569 c-215 -613 -350 -846 -791 -1381 -57 -68 -61 -75 -47
-93 14 -20 14 -20 31 1 9 12 60 72 113 135 260 309 427 567 563 868 63 138
166 412 166 439 0 26 -28 50 -35 31z"/>
<path d="M11541 18328 c-84 -220 -249 -570 -343 -731 -64 -109 -203 -314 -267
-392 -31 -38 -98 -112 -148 -165 -85 -89 -91 -98 -78 -116 13 -18 16 -17 61
26 75 72 214 238 291 346 153 215 285 454 415 749 119 271 130 302 116 325 -7
11 -15 20 -18 20 -3 0 -16 -28 -29 -62z"/>
<path d="M14766 18254 c-43 -16 -137 -84 -166 -121 l-19 -24 -53 39 c-81 59
-163 75 -266 52 -112 -26 -220 -111 -296 -233 -136 -220 -246 -644 -271 -1047
-9 -139 -8 -136 -57 -143 -50 -6 -70 -27 -163 -162 -54 -79 -60 -93 -60 -139
0 -28 4 -58 8 -66 5 -11 -19 -31 -95 -80 -175 -112 -300 -206 -412 -312 -177
-166 -328 -399 -407 -628 -31 -90 -37 -224 -14 -275 17 -35 17 -40 2 -84 -44
-126 -31 -218 43 -292 94 -94 214 -103 335 -24 50 32 50 32 122 22 132 -19
259 28 372 140 194 192 305 469 346 868 14 129 23 172 67 306 l52 157 62 4
c76 5 127 39 156 106 20 44 20 81 2 162 -5 24 6 32 178 135 641 383 1018 676
1109 861 59 120 43 235 -50 337 -61 68 -142 103 -252 110 -30 2 -54 8 -54 13
1 5 7 42 14 81 21 119 -8 220 -70 242 -43 15 -115 13 -163 -5z m159 -64 c24
-27 31 -114 15 -201 l-12 -69 -41 -11 c-51 -13 -151 -63 -194 -95 -17 -13 -34
-24 -36 -24 -3 0 -7 42 -10 93 -3 50 -11 111 -18 135 l-13 42 44 46 c66 68
134 104 196 104 38 0 55 -5 69 -20z m-494 -65 c41 -15 99 -59 99 -76 0 -4 -19
-36 -42 -71 -47 -70 -45 -67 -134 -218 -68 -117 -86 -138 -164 -194 -77 -54
-172 -173 -224 -281 -47 -97 -98 -253 -137 -420 -12 -55 -26 -104 -29 -108 -4
-4 -15 -5 -25 -1 -16 6 -17 17 -11 113 32 494 163 959 318 1136 101 115 234
160 349 120z m150 -211 c8 -62 -4 -162 -26 -204 -13 -25 -20 -27 -92 -33 -43
-3 -79 -4 -81 -3 -1 2 38 72 89 155 50 84 94 149 97 146 3 -3 9 -30 13 -61z
m580 -67 c109 -48 163 -125 164 -232 0 -111 -43 -182 -195 -320 -109 -98 -130
-115 -262 -213 -190 -141 -341 -238 -783 -504 -54 -33 -69 -31 -95 15 -14 25
-13 27 55 97 39 39 97 89 130 112 249 171 485 377 583 508 22 30 47 77 53 103
12 41 11 54 -5 100 l-18 52 45 85 c58 112 118 213 131 223 20 15 141 -1 197
-26z m-271 -2 c0 -17 -58 -116 -87 -148 -19 -21 -39 -49 -45 -63 -14 -29 -22
-30 -57 -5 -15 11 -39 23 -54 26 -40 10 -41 21 -5 54 86 77 248 166 248 136z
m-410 -222 c0 -6 -40 -61 -62 -85 -59 -62 -166 -226 -263 -403 -70 -129 -145
-230 -153 -206 -4 13 126 284 241 499 l92 173 45 14 c48 15 100 19 100 8z
m227 -49 c11 -30 -316 -431 -566 -693 -39 -41 -73 -72 -75 -70 -12 12 74 178
113 219 81 86 205 245 288 372 46 70 83 130 83 134 0 4 11 26 25 50 l25 43 51
-21 c28 -12 53 -27 56 -34z m-497 -62 c0 -4 -4 -12 -9 -17 -23 -25 -246 -481
-288 -589 -33 -86 -41 -73 -18 29 43 185 132 395 204 485 59 73 111 116 111
92z m570 -57 c0 -40 -41 -121 -82 -162 -87 -87 -303 -271 -347 -298 -23 -13
-2 16 65 91 86 96 158 188 271 342 60 82 69 91 80 75 7 -9 13 -31 13 -48z
m-406 -92 c-33 -47 -65 -88 -72 -89 -7 -1 -8 0 -2 3 5 2 10 8 10 13 0 14 112
172 118 166 3 -3 -22 -45 -54 -93z m-384 -575 c-21 -50 -67 -101 -82 -92 -13
8 24 79 60 116 20 21 38 36 40 33 3 -2 -5 -28 -18 -57z m-450 -453 c17 -9 30
-18 30 -21 0 -26 -369 -350 -389 -342 -15 5 302 376 322 377 4 1 21 -6 37 -14z
m-302 -172 c-131 -154 -229 -294 -310 -438 -18 -33 -65 -103 -104 -155 -39
-52 -90 -129 -114 -170 -62 -108 -162 -260 -171 -260 -16 0 -21 75 -10 139 15
80 34 130 113 291 99 202 230 360 432 520 112 89 229 171 235 164 2 -2 -30
-43 -71 -91z m403 34 c-65 -186 -208 -502 -261 -577 -11 -16 -20 -31 -20 -34
0 -3 -23 -41 -52 -83 -132 -198 -304 -383 -406 -436 -37 -19 -78 -37 -92 -39
-23 -3 -24 -1 -21 47 3 68 23 153 71 297 l40 123 154 176 c287 327 566 599
598 582 4 -2 -1 -27 -11 -56z m135 8 c-9 -37 -25 -75 -31 -75 -3 0 -5 23 -5
50 0 44 2 50 21 50 17 0 20 -4 15 -25z m-117 -282 c-6 -73 -17 -112 -62 -228
-100 -258 -211 -465 -319 -595 -54 -64 -162 -170 -175 -170 -7 0 11 30 39 68
128 168 235 359 361 642 28 62 131 323 141 358 15 46 21 11 15 -75z m-54 -425
c-89 -393 -302 -675 -526 -695 -68 -7 -73 4 -17 33 17 9 36 20 42 25 150 121
228 208 327 365 54 85 140 253 170 333 18 47 21 11 4 -61z m-288 -85 c-67
-149 -263 -437 -366 -537 -39 -38 -42 -39 -67 -25 -31 16 -84 84 -84 108 0 10
16 21 43 29 112 36 272 175 412 359 39 51 71 93 72 93 1 0 -3 -12 -10 -27z
m-572 -175 c-9 -29 -19 -90 -22 -136 -6 -79 -7 -83 -27 -78 -12 3 -27 6 -33 6
-18 0 -16 62 2 134 17 64 87 173 93 144 2 -9 -4 -41 -13 -70z m-135 -261 c19
-57 64 -110 124 -149 33 -21 70 -38 83 -38 36 0 27 -19 -19 -40 -84 -38 -185
-13 -233 58 -29 43 -34 122 -11 177 18 42 39 38 56 -8z m130 -55 c24 -53 8
-56 -38 -7 -32 36 -37 47 -26 58 14 14 47 -12 64 -51z"/>
<path d="M11691 18177 c-64 -167 -159 -386 -235 -537 -161 -323 -310 -542
-521 -766 -99 -105 -112 -124 -99 -135 12 -10 22 -6 57 27 74 70 66 69 150 24
149 -80 335 -134 506 -147 77 -5 92 -3 114 13 15 10 26 21 27 24 0 3 -44 6
-98 7 -116 2 -268 31 -373 72 -89 34 -219 98 -219 108 0 3 17 24 38 47 20 23
50 56 65 75 l28 33 97 -36 c224 -83 416 -126 630 -141 62 -4 79 -2 115 17 l42
23 -150 6 c-151 7 -219 18 -395 65 -87 23 -300 92 -309 100 -2 2 99 150 129
186 3 4 48 -6 100 -22 232 -74 522 -125 779 -137 123 -6 135 -5 147 12 8 10
14 21 14 24 0 3 -55 7 -123 8 -135 1 -320 22 -478 53 -139 28 -409 101 -409
111 0 5 17 35 38 68 22 32 45 73 52 90 7 17 16 31 20 31 4 0 65 -16 134 -35
186 -51 314 -68 513 -69 94 0 174 2 178 5 3 3 3 14 -1 23 -5 14 -26 16 -153
16 -215 0 -389 25 -593 85 l-58 16 51 102 c28 56 52 103 54 105 1 1 51 -11
110 -28 163 -45 415 -84 415 -63 0 24 -39 41 -109 47 -108 11 -364 68 -385 87
-9 8 62 189 74 189 5 0 36 -9 71 -19 35 -11 88 -23 117 -27 53 -7 54 -6 41 14
-9 14 -37 27 -94 41 -136 34 -127 24 -94 106 33 82 34 85 15 111 -14 18 -15
18 -25 -9z"/>
<path d="M4748 17930 c-353 -32 -689 -143 -1011 -334 -43 -25 -82 -46 -86 -46
-11 0 -114 119 -150 173 -34 50 -95 107 -114 107 -23 0 -207 -137 -207 -154 1
-17 210 -228 342 -344 l26 -24 59 43 c262 195 587 346 873 407 350 75 690 66
1050 -29 680 -180 1268 -702 1530 -1358 104 -262 153 -532 152 -836 -2 -465
-133 -915 -368 -1267 -93 -139 -142 -198 -278 -333 -171 -170 -353 -297 -561
-392 -132 -60 -401 -148 -550 -180 -122 -26 -146 -27 -375 -27 -195 -1 -263 3
-335 17 -390 77 -699 215 -1009 450 -96 73 -301 270 -396 382 -276 325 -468
722 -556 1150 -35 167 -44 487 -20 655 56 382 202 702 462 1009 l21 25 -81 70
c-44 39 -105 94 -136 121 -31 28 -72 63 -91 79 -19 16 -44 38 -57 49 l-22 21
-37 -44 c-55 -63 -123 -152 -123 -160 0 -11 114 -124 193 -190 42 -36 77 -69
77 -75 0 -5 -29 -57 -65 -116 -286 -469 -362 -1025 -219 -1601 150 -605 564
-1198 1089 -1560 256 -176 562 -310 853 -372 173 -37 266 -46 456 -46 251 0
442 32 671 110 66 22 147 50 179 61 235 80 523 266 726 469 363 361 567 777
656 1337 21 135 29 450 15 598 -86 888 -666 1650 -1514 1991 -328 132 -733
194 -1069 164z"/>
<path d="M4660 17755 c-489 -68 -911 -284 -1293 -663 -235 -232 -394 -481
-488 -762 -165 -494 -120 -1044 128 -1561 207 -431 507 -782 880 -1029 593
-393 1256 -483 1873 -254 206 76 279 108 380 165 483 274 834 754 970 1324 55
230 65 320 64 575 0 199 -3 254 -22 360 -74 411 -239 765 -495 1063 -371 431
-880 709 -1431 782 -142 18 -432 18 -566 0z m462 -129 c116 -6 311 -44 446
-87 797 -254 1370 -943 1463 -1758 17 -152 7 -454 -21 -611 -82 -463 -275
-834 -585 -1128 -240 -227 -466 -352 -835 -463 -828 -249 -1746 128 -2285 941
-221 332 -342 674 -376 1063 -38 432 96 871 374 1227 137 176 345 364 543 493
232 150 489 253 757 302 95 18 303 33 377 28 25 -1 89 -5 142 -7z"/>
<path d="M4835 16755 c-104 -49 -159 -142 -158 -270 0 -88 16 -139 74 -235 17
-30 38 -66 45 -79 12 -23 12 -23 48 25 49 69 61 124 50 253 -13 173 -11 251 9
294 16 35 16 37 0 36 -10 0 -41 -11 -68 -24z"/>
<path d="M5115 16744 c-48 -18 -81 -47 -107 -97 -35 -69 -37 -187 -3 -187 18
0 91 65 107 94 7 12 21 55 34 96 12 41 25 83 29 93 9 21 -5 21 -60 1z"/>
<path d="M4415 16585 c-33 -78 3 -190 78 -248 49 -37 83 -44 92 -18 16 51 -18
136 -87 217 -23 28 -48 60 -54 70 -10 17 -13 15 -29 -21z"/>
<path d="M6129 16343 c-1 -5 -1 -11 0 -15 0 -4 -6 -5 -14 -2 -8 4 -17 0 -20
-8 -3 -8 -11 -15 -18 -15 -16 0 -95 -49 -130 -82 -33 -30 -72 -94 -81 -133 -6
-27 -5 -28 37 -28 46 0 123 34 165 73 42 39 70 99 74 160 2 31 1 57 -4 57 -4
0 -9 -3 -9 -7z"/>
<path d="M5410 16323 c-8 -3 -18 -11 -22 -17 -5 -8 -13 -7 -28 2 -34 21 -53
16 -46 -13 5 -21 2 -27 -19 -35 -33 -12 -33 -47 -1 -61 13 -6 26 -20 29 -30 3
-11 18 -20 41 -24 20 -4 40 -14 45 -23 8 -14 12 -14 37 4 16 10 45 21 64 24
25 4 34 10 31 20 -3 8 -5 29 -6 45 -1 24 -10 35 -40 52 -22 12 -43 31 -47 42
-8 22 -13 23 -38 14z m20 -43 c0 -5 -4 -10 -10 -10 -5 0 -10 5 -10 10 0 6 5
10 10 10 6 0 10 -4 10 -10z m-70 -10 c0 -5 -4 -10 -9 -10 -6 0 -13 5 -16 10
-3 6 1 10 9 10 9 0 16 -4 16 -10z m130 -20 c0 -5 -7 -10 -15 -10 -9 0 -12 -6
-9 -15 4 -8 1 -15 -5 -15 -15 0 -14 23 1 38 15 15 28 16 28 2z m-150 -10 c0
-5 -4 -10 -10 -10 -5 0 -10 5 -10 10 0 6 5 10 10 10 6 0 10 -4 10 -10z m70
-10 c0 -5 -4 -10 -9 -10 -6 0 -13 5 -16 10 -3 6 1 10 9 10 9 0 16 -4 16 -10z
m-30 -24 c0 -3 -4 -8 -10 -11 -5 -3 -10 -1 -10 4 0 6 5 11 10 11 6 0 10 -2 10
-4z m45 -26 c-3 -5 -12 -7 -20 -3 -21 7 -19 13 6 13 11 0 18 -4 14 -10z m85 0
c0 -5 -4 -10 -10 -10 -5 0 -10 5 -10 10 0 6 5 10 10 10 6 0 10 -4 10 -10z"/>
<path d="M6400 16258 c-36 -119 -76 -192 -134 -245 -75 -68 -206 -154 -316
-206 -72 -34 -112 -60 -165 -111 -63 -61 -67 -67 -40 -61 17 4 82 10 145 14
146 11 195 22 297 71 96 47 189 133 227 213 14 28 32 88 41 133 16 78 15 85
-5 173 -12 50 -23 91 -25 91 -2 0 -13 -32 -25 -72z"/>
<path d="M4196 16271 c-76 -19 -76 -20 4 -46 76 -25 163 -69 203 -105 61 -53
177 -240 226 -363 17 -42 41 -92 53 -111 33 -47 107 -130 113 -124 2 2 0 22
-6 44 -7 21 -9 69 -6 107 10 118 -32 294 -93 391 -37 58 -109 129 -164 161
-45 26 -188 66 -233 64 -15 -1 -59 -9 -97 -18z"/>
<path d="M6362 16248 c-30 -48 -90 -102 -147 -132 -27 -14 -54 -26 -59 -26
-15 0 -160 -70 -201 -98 -88 -59 -184 -154 -211 -207 -14 -30 -22 -59 -18 -66
4 -7 3 -9 -3 -6 -6 4 -14 -4 -17 -17 -3 -13 -9 -32 -13 -43 -6 -16 -5 -16 10
-4 9 7 14 18 10 25 -3 6 -3 8 2 4 4 -4 40 19 79 52 40 33 108 76 152 96 85 39
274 160 274 175 0 5 11 15 25 21 24 11 30 35 8 31 -5 -1 -10 5 -10 13 0 8 3
12 5 9 3 -3 12 1 21 8 14 10 14 10 3 -5 -9 -12 -10 -18 -2 -23 14 -9 11 -12
54 65 56 104 88 208 38 128z"/>
<path d="M3843 16217 c-18 -7 -34 -14 -35 -17 -4 -10 119 -119 157 -139 58
-30 133 -39 141 -17 18 47 -81 155 -160 175 -53 13 -61 13 -103 -2z"/>
<path d="M4206 16188 c40 -30 104 -98 104 -109 0 -6 5 -7 12 -3 7 4 8 3 4 -5
-4 -6 -4 -17 2 -24 5 -7 19 -46 32 -87 13 -41 38 -103 55 -136 38 -74 124
-194 165 -231 45 -39 111 -75 129 -68 8 3 12 3 8 -1 -4 -4 7 -14 24 -21 18 -7
34 -12 36 -9 7 7 -49 66 -58 61 -5 -4 -6 1 -3 9 3 9 2 16 -3 16 -10 0 -67 83
-79 114 -6 15 -7 15 -21 -1 -13 -17 -13 -16 -4 4 7 14 7 31 0 55 -22 69 -32
88 -42 81 -5 -3 -7 -1 -4 4 4 6 -9 34 -28 63 -19 29 -35 56 -35 62 0 5 -5 6
-12 2 -7 -4 -8 -3 -4 5 4 6 -3 25 -15 42 -12 18 -24 26 -28 20 -4 -6 -12 -1
-20 12 -13 20 -13 21 2 8 10 -8 17 -9 17 -3 0 6 -11 19 -25 30 -13 11 -21 23
-17 27 4 5 -1 5 -10 2 -11 -4 -17 -2 -15 5 3 15 -114 76 -132 70 -8 -3 -12 -1
-8 5 4 6 -3 13 -16 17 -38 10 -41 7 -11 -16z m419 -606 c-3 -3 -11 0 -18 7 -9
10 -8 11 6 5 10 -3 15 -9 12 -12z"/>
<path d="M4903 16028 c-6 -29 -18 -86 -27 -127 -18 -79 -12 -139 20 -203 19
-38 27 -40 56 -15 30 26 45 53 64 115 18 60 18 82 -1 146 -13 45 -78 136 -96
136 -3 0 -10 -24 -16 -52z"/>
<path d="M3646 16031 l-40 -6 39 -29 c21 -16 50 -41 64 -55 86 -86 235 -178
351 -216 62 -20 113 -29 188 -33 l103 -5 -15 37 c-24 59 -63 101 -134 149
-131 88 -272 141 -402 152 -41 3 -84 8 -95 9 -11 2 -38 1 -59 -3z m640 -242
c3 -6 1 -16 -6 -22 -10 -9 -11 -9 -5 2 4 8 2 17 -6 22 -9 6 -10 9 -2 9 6 0 15
-5 19 -11z"/>
<path d="M3682 15705 c-18 -8 -48 -31 -67 -52 l-35 -38 73 -12 c101 -16 156
-16 210 3 58 20 75 38 56 61 -40 47 -167 68 -237 38z"/>
<path d="M5155 15693 c-46 -25 -56 -43 -50 -89 5 -36 3 -42 -18 -51 -13 -6
-44 -9 -69 -6 -38 4 -49 2 -68 -17 -14 -14 -20 -29 -17 -42 4 -15 -1 -22 -24
-30 -17 -6 -34 -21 -39 -34 -8 -19 -17 -24 -45 -24 -66 0 -92 -27 -102 -105
-4 -36 0 -53 21 -89 14 -24 32 -46 41 -50 19 -7 19 -30 0 -46 -21 -17 -19 -25
12 -54 23 -22 24 -26 11 -39 -30 -31 -42 -74 -28 -108 16 -37 58 -79 81 -79
15 0 14 -6 -3 -57 -32 -98 -47 -174 -64 -334 -10 -85 -18 -165 -18 -179 -1
-14 -4 -27 -7 -30 -3 -3 -9 -18 -13 -33 -6 -27 -5 -27 16 -16 41 22 145 109
171 142 65 85 112 254 100 361 -7 56 11 96 41 96 12 0 34 9 51 20 l30 19 33
-32 c33 -31 35 -32 127 -32 84 0 96 2 118 23 14 13 30 43 37 68 11 37 17 44
37 44 14 0 36 9 50 20 14 11 39 20 54 20 22 0 30 6 35 25 3 13 14 27 24 30 16
5 18 16 16 87 -3 83 -3 84 -53 114 -17 10 -15 14 19 52 37 41 55 93 45 134 -4
20 3 27 56 53 57 28 127 97 127 126 0 12 -225 12 -268 0 -27 -8 -41 -5 -89 21
-56 30 -104 34 -155 13 -12 -5 -23 6 -45 44 -42 76 -110 101 -178 64z m173
-361 c15 -10 36 -22 47 -28 26 -14 42 -74 23 -89 -8 -5 -14 -23 -14 -40 1 -23
-4 -31 -20 -33 -12 -2 -24 -12 -27 -23 -3 -13 -14 -19 -31 -19 -14 0 -26 -5
-26 -10 0 -16 -47 -33 -67 -25 -10 4 -39 7 -65 6 -41 -2 -48 0 -48 16 0 14
-11 22 -37 29 -47 11 -56 44 -21 68 12 9 23 24 23 34 0 11 9 18 27 20 16 2 30
11 33 22 10 31 70 55 101 41 21 -9 26 -8 31 7 9 21 25 41 36 42 4 0 20 -8 35
-18z m-498 -382 c0 -5 -4 -10 -10 -10 -5 0 -10 5 -10 10 0 6 5 10 10 10 6 0
10 -4 10 -10z m590 -110 c0 -5 -4 -10 -10 -10 -5 0 -10 5 -10 10 0 6 5 10 10
10 6 0 10 -4 10 -10z"/>
<path d="M4044 15325 c3 -9 -3 -19 -14 -25 -26 -14 -25 -45 2 -72 18 -18 35
-23 75 -24 29 -1 53 3 53 8 0 4 11 8 25 8 14 0 25 4 25 10 0 20 -24 60 -37 60
-7 0 -13 5 -13 11 0 5 -16 17 -36 25 -28 12 -39 12 -50 3 -10 -8 -14 -8 -14 0
0 6 -5 11 -11 11 -6 0 -9 -7 -5 -15z m96 -20 c10 -12 10 -15 -4 -15 -9 0 -16
7 -16 15 0 8 2 15 4 15 2 0 9 -7 16 -15z m-30 -30 c0 -8 -7 -15 -16 -15 -14 0
-14 3 -4 15 7 8 14 15 16 15 2 0 4 -7 4 -15z m-60 -5 c0 -5 -4 -10 -10 -10 -5
0 -10 5 -10 10 0 6 5 10 10 10 6 0 10 -4 10 -10z m50 -30 c0 -5 -7 -10 -15
-10 -8 0 -15 5 -15 10 0 6 7 10 15 10 8 0 15 -4 15 -10z"/>
<path d="M4633 15087 c0 -79 -54 -287 -75 -287 -4 0 -4 -7 -1 -17 4 -10 2 -14
-4 -10 -13 8 -47 -59 -37 -75 4 -7 3 -8 -4 -4 -8 4 -12 -1 -13 -13 -2 -28 -1
-25 -34 -121 -40 -115 -42 -239 -5 -350 l24 -75 7 100 c6 94 9 105 53 185 90
166 115 228 136 328 21 106 27 228 10 217 -6 -3 -7 1 -4 10 4 9 2 26 -4 38 -6
12 -16 39 -22 60 -13 41 -27 49 -27 14z"/>
<path d="M4577 15063 c-15 -21 -43 -49 -62 -62 -75 -51 -174 -170 -220 -265
-80 -166 -85 -299 -15 -441 22 -44 50 -91 62 -105 31 -34 148 -122 148 -111 0
5 -11 33 -24 62 -35 81 -58 177 -57 245 0 82 57 270 126 414 43 91 57 134 68
208 8 50 11 92 7 92 -4 0 -19 -17 -33 -37z"/>
<path d="M10396 17499 c-50 -56 -52 -61 -32 -78 10 -9 24 2 65 49 49 57 57 80
26 80 -7 0 -34 -23 -59 -51z"/>
<path d="M10622 17466 c-10 -14 -51 -59 -90 -102 -40 -43 -72 -81 -72 -85 0
-3 6 -12 14 -18 11 -9 34 10 120 100 58 62 103 116 100 121 -11 17 -53 7 -72
-16z"/>
<path d="M1215 17363 c-21 -38 -58 -99 -81 -138 -22 -38 -52 -90 -66 -115 -14
-25 -58 -100 -97 -168 -68 -116 -76 -142 -48 -142 14 0 12 -3 123 188 47 81
119 204 160 274 41 70 74 136 74 148 0 39 -26 20 -65 -47z"/>
<path d="M2491 16926 c-18 -33 6 -81 74 -145 55 -53 97 -71 124 -54 36 23 26
72 -25 132 -72 84 -149 114 -173 67z"/>
<path d="M16524 16856 c-93 -41 -146 -161 -100 -230 25 -39 98 -70 144 -61 84
16 158 80 168 148 8 49 -16 108 -55 134 -39 26 -108 30 -157 9z"/>
<path d="M234 16733 c-23 -46 -29 -71 -29 -123 0 -78 27 -143 63 -148 28 -4
28 4 0 48 -33 53 -31 139 5 208 32 63 33 72 9 72 -13 0 -28 -19 -48 -57z"/>
<path d="M450 16731 c0 -16 11 -18 123 -25 83 -6 97 -4 97 9 0 11 -11 15 -42
15 -24 0 -73 3 -110 7 -49 4 -68 3 -68 -6z"/>
<path d="M10920 16611 c0 -5 15 -23 33 -42 43 -43 197 -101 348 -129 44 -9 55
-7 71 6 28 26 23 31 -39 37 -79 8 -220 50 -325 97 -49 21 -88 35 -88 31z"/>
<path d="M19063 16434 c-3 -8 3 -25 15 -37 45 -49 57 -88 57 -182 0 -84 -3
-96 -39 -172 -35 -74 -40 -103 -16 -103 13 0 57 81 80 150 40 118 18 265 -50
338 -24 26 -38 28 -47 6z"/>
<path d="M14974 15901 c-119 -78 -263 -259 -344 -432 -30 -65 -51 -169 -34
-169 14 0 136 64 164 85 59 47 152 150 200 222 48 74 97 200 115 296 7 35 6
37 -17 37 -14 0 -51 -17 -84 -39z m-33 -111 c19 -11 25 -45 11 -66 -13 -19
-39 -23 -61 -8 -25 18 -27 46 -5 68 18 19 28 20 55 6z m-97 -146 c30 -30 13
-74 -29 -74 -42 0 -59 44 -29 74 8 9 22 16 29 16 7 0 21 -7 29 -16z m-88 -139
c15 -23 15 -27 0 -50 -28 -43 -86 -23 -86 30 0 46 60 60 86 20z"/>
<path d="M9525 15730 c-612 -95 -1073 -561 -1218 -1230 -14 -63 -28 -139 -32
-167 l-7 -53 319 0 319 0 -4 149 c-4 145 9 302 29 332 8 12 10 12 19 -1 23
-36 49 -245 50 -397 l0 -83 76 0 75 0 -8 238 c-11 312 -7 484 13 601 25 146
41 165 68 79 44 -142 66 -379 66 -730 l0 -188 74 0 74 0 4 178 c5 173 17 247
39 225 17 -17 39 -147 46 -275 l6 -128 94 0 93 0 -6 283 c-7 284 1 419 29 532
26 98 51 55 88 -145 14 -76 21 -171 25 -345 2 -132 7 -259 10 -282 l5 -43 45
0 44 0 0 168 c0 216 19 346 45 320 16 -15 44 -209 50 -340 l7 -148 75 0 75 0
-6 118 c-15 296 -17 513 -6 616 11 107 33 222 45 234 11 11 26 -16 45 -84 34
-117 49 -276 56 -586 l7 -298 52 0 52 0 6 143 c5 141 20 228 37 211 19 -19 41
-134 47 -241 l6 -113 62 0 62 0 -1 188 c-1 182 13 302 34 302 27 0 60 -214 60
-387 l0 -103 306 0 307 0 -7 63 c-9 79 -57 271 -91 360 -199 527 -624 889
-1185 1007 -84 18 -146 23 -310 26 -113 1 -232 -1 -265 -6z"/>
<path d="M0 15641 c0 -11 6 -21 13 -21 33 0 119 -33 145 -55 33 -27 62 -33 62
-12 0 34 -97 90 -178 103 -38 6 -42 5 -42 -15z"/>
<path d="M19122 15643 c2 -13 14 -19 41 -21 32 -3 37 0 37 17 0 18 -6 21 -41
21 -33 0 -40 -3 -37 -17z"/>
<path d="M15912 15462 c-10 -7 -9 -15 4 -41 57 -113 -98 -425 -335 -675 -85
-88 -125 -108 -211 -104 l-70 3 0 -43 c0 -35 6 -49 31 -74 27 -28 34 -30 76
-24 96 13 221 111 356 279 244 303 351 574 262 663 -25 25 -85 33 -113 16z"/>
<path d="M1490 15335 c0 -8 17 -18 43 -25 180 -45 349 -216 437 -442 48 -123
63 -224 57 -367 -6 -146 -26 -229 -84 -353 -55 -116 -119 -205 -228 -313 -118
-118 -248 -209 -420 -294 -207 -103 -356 -156 -648 -230 -226 -58 -322 -92
-494 -177 -134 -66 -153 -78 -153 -99 0 -24 1 -23 73 19 158 94 348 166 610
232 618 155 1024 401 1238 749 172 278 191 623 50 917 -88 186 -223 319 -381
375 -76 26 -100 29 -100 8z"/>
<path d="M9193 14954 c-19 -67 -1 -429 22 -452 14 -15 20 23 23 147 6 207 -22
389 -45 305z"/>
<path d="M10253 14965 c-13 -32 -8 -374 6 -424 21 -73 35 -36 39 108 4 124
-10 289 -28 321 -7 13 -10 12 -17 -5z"/>
<path d="M9766 14858 c-18 -71 0 -428 24 -452 22 -22 34 156 21 309 -12 128
-19 165 -31 165 -4 0 -10 -10 -14 -22z"/>
<path d="M8934 14565 c-8 -47 3 -236 15 -248 15 -15 24 79 17 177 -8 101 -21
130 -32 71z"/>
<path d="M9995 14576 c-9 -32 -1 -253 9 -263 3 -3 9 -3 13 1 11 10 6 236 -5
266 l-10 25 -7 -29z"/>
<path d="M10705 14542 c-4 -33 -4 -91 0 -129 17 -159 41 -116 33 59 -7 127
-22 161 -33 70z"/>
<path d="M9478 14514 c-5 -4 -8 -58 -8 -121 0 -94 3 -113 15 -113 12 0 15 16
14 93 -1 99 -10 153 -21 141z"/>
<path d="M10497 14454 c-4 -4 -7 -45 -7 -91 0 -75 2 -84 18 -81 15 3 16 13 13
73 -4 74 -12 110 -24 99z"/>
<path d="M13372 13713 c-23 -56 -192 -631 -192 -651 0 -11 7 -23 16 -26 22 -8
137 -7 151 2 6 4 14 24 18 45 9 47 28 57 109 57 85 0 94 -5 107 -54 6 -22 16
-44 23 -48 21 -14 153 -9 166 6 9 12 -3 80 -60 333 -39 175 -75 328 -80 341
-9 21 -15 22 -129 22 l-119 0 -10 -27z m147 -215 c4 -13 14 -65 21 -116 15
-106 13 -112 -52 -112 -49 0 -68 8 -68 31 0 30 42 192 53 207 15 19 37 14 46
-10z"/>
<path d="M13905 13727 c-3 -6 -4 -163 -3 -347 l3 -335 90 0 90 0 5 150 5 150
32 -50 c18 -27 58 -93 91 -145 l58 -95 110 0 109 0 0 335 0 335 -84 3 c-46 2
-88 -1 -92 -5 -5 -5 -9 -95 -10 -201 -1 -124 -5 -192 -11 -190 -6 2 -58 95
-116 206 l-106 202 -83 0 c-58 0 -85 -4 -88 -13z"/>
<path d="M14705 13733 c-22 -3 -45 -9 -52 -15 -10 -8 -13 -84 -13 -328 0 -275
2 -319 16 -330 9 -8 55 -15 118 -18 162 -7 264 32 326 126 41 61 53 111 54
212 1 205 -91 318 -285 349 -64 11 -88 11 -164 4z m233 -203 c87 -54 81 -243
-9 -297 -43 -26 -95 -36 -120 -23 -17 10 -19 23 -19 156 0 81 5 154 10 165 15
27 93 26 138 -1z"/>
<path d="M12527 13723 c-4 -3 -7 -156 -7 -340 l0 -334 98 3 97 3 3 128 3 127
73 0 c58 0 75 -3 80 -16 3 -9 6 -67 6 -130 l0 -115 88 3 87 3 0 335 0 335 -84
3 c-61 2 -87 -1 -93 -10 -4 -7 -8 -65 -8 -128 1 -63 1 -121 1 -127 -1 -9 -23
-13 -76 -13 l-75 0 0 124 c0 68 -3 131 -6 140 -5 13 -23 16 -93 16 -48 0 -91
-3 -94 -7z"/>
<path d="M8310 13678 c0 -37 76 -251 120 -340 103 -207 291 -431 465 -553 80
-56 284 -161 395 -204 403 -154 888 -105 1277 130 354 214 605 514 732 873 17
48 31 93 31 101 0 10 -55 12 -277 11 l-278 -1 -6 -140 c-4 -77 -7 -152 -8
-167 0 -16 -5 -28 -10 -28 -5 0 -14 60 -20 133 -7 72 -15 148 -19 167 l-7 35
-71 3 -72 3 -7 -235 c-4 -130 -11 -236 -16 -236 -11 0 -8 -28 -32 235 l-22
230 -65 0 -65 0 -7 -300 c-8 -333 -14 -408 -31 -402 -15 4 -30 130 -52 422 -9
121 -18 235 -21 253 l-5 32 -88 0 -89 0 -7 -157 c-10 -243 -23 -241 -45 6 -14
158 -13 156 -95 148 l-40 -4 -12 -393 c-11 -356 -18 -429 -37 -409 -8 7 -34
270 -54 545 -10 132 -22 245 -25 252 -5 6 -45 10 -106 10 l-98 0 -7 -76 c-3
-41 -6 -127 -7 -191 0 -110 -9 -166 -21 -145 -3 5 -11 74 -18 154 -6 80 -15
170 -19 200 l-6 55 -83 1 c-76 1 -83 -1 -87 -20 -2 -12 -6 -167 -9 -345 -5
-299 -11 -359 -32 -338 -9 9 -31 215 -52 477 l-17 225 -90 0 -90 0 -8 -164
c-7 -155 -10 -181 -22 -170 -2 3 -11 76 -20 164 -9 87 -18 162 -21 167 -3 4
-144 8 -315 8 l-309 0 0 -22z"/>
<path d="M19092 12975 c-268 -202 -441 -481 -509 -822 -27 -137 -24 -432 5
-583 79 -401 252 -727 518 -980 75 -71 89 -80 92 -63 2 15 -13 36 -49 70 -190
176 -321 367 -418 608 -156 389 -179 790 -64 1133 78 233 244 458 456 616 48
37 77 65 77 77 0 11 -2 19 -5 19 -2 0 -49 -34 -103 -75z"/>
<path d="M927 12888 c-112 -60 -215 -175 -252 -278 -59 -166 -28 -349 95 -562
86 -152 269 -422 290 -430 32 -12 38 -22 -105 197 -206 315 -263 438 -273 591
-9 147 30 249 137 355 36 36 92 80 124 98 31 18 57 36 57 41 0 20 -19 17 -73
-12z"/>
<path d="M1665 12836 c-264 -183 -357 -250 -365 -266 -19 -35 -10 -62 48 -145
54 -79 59 -83 107 -94 185 -39 388 -61 597 -64 112 -1 158 -5 158 -14 0 -6
-10 -36 -21 -67 l-22 -56 -78 0 c-175 0 -480 26 -717 62 -141 21 -170 20 -179
-8 -8 -25 462 -84 808 -101 l146 -8 -41 -94 -41 -93 -115 5 c-227 12 -554 64
-765 122 -79 22 -85 22 -85 5 0 -29 17 -36 175 -75 217 -53 395 -80 677 -103
l87 -7 -40 -72 -40 -73 -57 0 c-84 0 -346 29 -501 55 -75 13 -137 22 -139 20
-7 -6 23 -45 38 -50 56 -17 274 -46 554 -72 l78 -8 -58 -89 -59 -88 -100 6
-100 5 100 -29 c55 -16 105 -29 111 -30 22 0 171 234 257 405 102 204 224 548
292 823 37 149 38 153 19 168 -14 11 -32 13 -69 8 -27 -4 -110 -8 -183 -10
-73 -2 -137 -6 -142 -9 -61 -37 142 -56 314 -28 l39 6 -7 -44 c-11 -71 -11
-71 -218 -73 -197 -1 -288 3 -288 15 0 3 16 19 35 33 l35 27 -31 47 c-80 119
-114 128 -214 58z m255 -227 c57 -7 157 -9 248 -6 83 3 152 4 152 3 0 -1 -7
-25 -15 -53 l-15 -52 -58 -7 c-118 -15 -544 14 -568 39 -3 2 24 25 58 51 42
31 70 45 83 42 11 -3 63 -10 115 -17z m-190 -140 c75 -14 167 -21 323 -26 119
-3 217 -8 217 -11 0 -3 -8 -29 -17 -58 -20 -64 -9 -62 -273 -52 -228 8 -511
45 -510 66 1 12 124 102 140 102 8 0 62 -9 120 -21z"/>
<path d="M4020 12801 c-95 -31 -155 -79 -204 -161 -51 -86 -69 -158 -64 -253
9 -153 85 -268 218 -331 86 -40 193 -43 286 -8 67 25 168 106 160 128 -3 7 0
11 7 8 14 -5 50 49 40 60 -3 3 -1 6 5 6 20 0 36 75 37 170 0 87 -3 101 -32
160 -42 87 -94 141 -178 186 -63 33 -79 37 -160 40 -49 2 -101 0 -115 -5z m41
-249 c22 -57 -33 -114 -86 -90 -44 20 -48 103 -6 124 33 17 80 -1 92 -34z
m217 28 c35 -22 38 -31 21 -79 -14 -39 -49 -55 -84 -39 -45 20 -48 103 -5 125
32 16 29 16 68 -7z m-224 -232 c23 -30 23 -34 10 -60 -25 -49 -67 -60 -104
-30 -16 13 -23 29 -22 51 2 73 71 96 116 39z m239 1 c24 -33 13 -77 -24 -98
-52 -29 -100 10 -90 74 8 58 77 72 114 24z"/>
<path d="M12470 12711 l-35 -6 0 -340 0 -340 94 -3 c58 -2 98 1 105 8 6 6 13
66 16 136 l5 125 55 -133 55 -133 65 0 65 0 55 137 c33 83 57 132 62 125 4 -7
8 -64 8 -128 0 -87 3 -119 14 -128 9 -8 48 -11 112 -9 l99 3 -3 325 c-1 179
-4 335 -7 348 -5 21 -10 22 -114 22 l-108 0 -89 -150 c-49 -82 -92 -150 -96
-150 -4 0 -20 26 -37 58 -16 31 -51 98 -78 147 l-48 90 -80 1 c-44 1 -96 -1
-115 -5z"/>
<path d="M13547 12712 c-11 -2 -24 -27 -38 -75 -11 -40 -57 -191 -101 -336
-43 -145 -77 -270 -74 -278 4 -11 25 -13 88 -11 l82 3 16 45 16 45 74 3 c105
4 114 1 128 -53 l12 -45 89 0 c62 0 90 4 93 13 3 6 -30 162 -71 346 -72 316
-77 334 -101 343 -22 8 -170 8 -213 0z m121 -234 c5 -7 17 -58 26 -113 15 -93
15 -101 -1 -112 -22 -17 -84 -17 -107 0 -17 12 -17 17 4 107 13 52 27 103 32
113 10 20 31 22 46 5z"/>
<path d="M14065 12713 c-45 -12 -45 -9 -45 -348 0 -288 2 -324 17 -336 12 -10
51 -14 152 -14 129 0 139 1 193 28 118 58 163 146 163 322 0 98 -3 116 -26
165 -38 80 -72 116 -147 151 -59 29 -76 32 -176 35 -61 2 -120 0 -131 -3z
m255 -201 c46 -22 70 -72 70 -143 0 -117 -62 -189 -164 -189 l-46 0 0 163 c0
113 4 167 12 175 18 18 88 15 128 -6z"/>
<path d="M14723 12713 l-83 -4 0 -349 0 -350 240 0 c260 0 242 -4 242 55 0 14
0 39 -1 55 l-1 30 -101 0 c-125 0 -139 6 -139 66 0 54 12 60 115 63 39 1 74 6
78 10 4 4 7 37 5 72 l-3 64 -85 3 c-46 2 -90 8 -97 14 -17 14 -17 92 0 106 7
6 60 13 118 14 l104 3 3 69 c2 49 -1 72 -10 77 -12 8 -207 9 -385 2z"/>
<path d="M2526 12528 c-22 -92 -134 -427 -177 -533 -57 -139 -185 -381 -268
-507 -58 -88 -77 -124 -68 -130 23 -15 34 -8 72 49 171 258 293 511 403 838
78 234 96 304 83 331 -6 13 -14 24 -19 24 -5 0 -17 -33 -26 -72z"/>
<path d="M16390 12313 c-252 -259 -431 -609 -496 -973 -21 -115 -30 -310 -16
-336 13 -25 100 -93 163 -128 65 -36 190 -76 236 -76 33 0 45 7 80 43 229 239
435 633 512 983 20 89 51 312 51 365 0 15 -11 41 -25 57 -49 59 -285 152 -384
152 -32 0 -45 -10 -121 -87z m190 4 c0 -7 -31 -32 -70 -56 -38 -24 -76 -51
-84 -60 -8 -9 -17 -50 -20 -96 -11 -132 -9 -128 -97 -185 -43 -29 -79 -55 -79
-59 0 -3 9 -43 20 -89 11 -46 20 -89 20 -96 0 -7 -36 -39 -80 -70 -44 -32 -82
-61 -85 -66 -2 -4 2 -51 10 -105 23 -153 25 -146 -51 -183 l-66 -33 7 -96 c6
-77 5 -95 -6 -91 -14 5 -22 37 -34 143 l-6 60 70 35 c39 18 71 36 71 39 0 3
-7 49 -15 101 -23 150 -27 139 70 210 62 44 84 66 81 78 -3 10 -12 46 -21 82
-9 36 -18 73 -21 82 -4 13 17 32 80 74 48 30 86 61 87 67 0 7 6 57 12 112 l12
100 84 58 c85 57 111 68 111 44z m243 -135 c3 -16 9 -63 13 -104 l7 -76 -34
-11 c-19 -6 -50 -21 -70 -34 l-35 -22 17 -120 17 -120 -22 -20 c-13 -11 -53
-41 -88 -66 l-65 -47 23 -88 c13 -49 23 -95 22 -101 -2 -7 -39 -37 -83 -66
l-80 -53 -7 -54 c-4 -30 -10 -81 -13 -112 l-6 -58 -90 -60 c-81 -55 -109 -65
-109 -40 0 4 38 32 84 62 l84 53 6 65 c17 173 9 155 94 212 43 28 79 53 81 54
2 2 -6 49 -19 104 -12 56 -21 102 -19 104 2 2 41 29 87 60 47 33 82 65 82 74
0 9 -7 62 -15 116 -8 55 -15 105 -15 113 0 7 32 29 71 48 61 31 70 39 66 58
-3 12 -9 52 -12 90 -6 56 -5 67 8 67 8 0 17 -12 20 -28z"/>
<path d="M2689 12313 c-25 -92 -127 -349 -187 -473 -73 -151 -141 -270 -235
-410 -60 -90 -219 -305 -237 -320 -3 -3 -37 -43 -75 -90 -38 -47 -75 -91 -82
-98 -15 -16 -16 -31 -4 -51 11 -17 7 -21 122 116 306 364 499 675 642 1033 85
212 110 295 97 319 -16 32 -26 25 -41 -26z"/>
<path d="M2781 12013 c-71 -177 -214 -478 -293 -616 -134 -235 -274 -422 -450
-602 -62 -64 -67 -72 -55 -90 13 -17 17 -16 67 31 268 251 554 716 776 1263
53 130 54 135 36 153 -17 18 -20 13 -81 -139z"/>
<path d="M5313 12095 c-138 -60 -63 -304 99 -322 157 -18 213 171 85 284 -57
50 -125 64 -184 38z"/>
<path d="M7955 12031 c-106 -38 -160 -74 -251 -165 -134 -135 -244 -315 -304
-501 -12 -38 -25 -74 -28 -79 -3 -5 -24 31 -48 79 -74 147 -171 268 -294 366
-58 47 -200 129 -221 129 -14 0 -18 -16 -23 -97 -15 -209 -57 -700 -66 -762
-5 -36 -10 -69 -10 -73 0 -5 -5 -8 -11 -8 -8 0 -10 137 -8 493 l4 492 -70 13
c-214 38 -446 -40 -598 -202 -42 -45 -147 -198 -147 -214 0 -6 32 -48 71 -94
138 -161 238 -281 304 -363 22 -28 44 -55 50 -61 6 -6 36 -45 68 -86 53 -69
68 -98 50 -98 -7 0 -279 277 -493 503 -45 48 -86 87 -90 87 -9 0 -25 -55 -47
-165 -14 -73 -18 -138 -18 -340 1 -251 8 -338 52 -579 l16 -88 46 6 c307 44
791 99 799 91 13 -13 -21 -25 -138 -50 -69 -14 -141 -30 -160 -35 -19 -5 -134
-28 -255 -50 -121 -23 -227 -44 -235 -45 -8 -2 -18 -4 -22 -4 -5 -1 -8 -12 -8
-26 0 -28 99 -428 156 -632 19 -71 48 -175 64 -233 112 -415 238 -503 585
-410 179 49 191 52 312 94 108 37 112 40 108 65 -11 61 -60 625 -76 850 -9
143 -8 173 7 158 13 -13 71 -357 134 -791 16 -109 31 -200 33 -202 2 -2 31 7
65 21 34 14 135 53 225 86 89 34 180 69 202 79 22 10 69 30 105 45 82 34 240
116 240 125 0 4 -61 67 -137 141 -211 208 -537 539 -576 586 -11 12 -14 24 -9
27 9 6 87 -55 204 -158 26 -22 57 -50 70 -61 121 -101 223 -191 440 -388 l108
-99 99 66 c299 201 503 433 589 670 23 63 26 87 27 203 0 72 -2 134 -5 136 -3
3 -86 -1 -185 -9 -517 -40 -1015 -63 -1015 -46 0 6 8 13 18 16 57 17 639 90
970 122 113 11 182 22 182 28 0 20 -62 131 -112 198 -157 213 -410 353 -703
388 -121 15 -273 3 -350 -26 -37 -14 -6 16 140 138 227 189 346 326 416 477
68 146 54 233 -44 270 -43 17 -146 12 -202 -8z m190 -63 c49 -22 44 -81 -16
-194 -75 -141 -180 -258 -379 -425 -231 -193 -350 -280 -350 -255 0 14 34 151
51 206 81 260 239 501 398 605 99 66 229 94 296 63z"/>
<path d="M2977 11973 c-3 -4 -32 -75 -65 -158 -216 -538 -423 -877 -729 -1196
-73 -76 -81 -88 -68 -99 14 -11 22 -7 58 26 64 61 75 68 90 56 31 -25 141 -76
231 -108 192 -67 397 -93 451 -58 35 23 31 30 -16 26 -54 -6 -215 15 -309 38
-146 37 -357 134 -337 155 7 6 30 33 52 59 83 100 59 94 183 48 198 -75 407
-122 608 -138 72 -6 85 -4 125 17 l44 24 -155 6 c-156 7 -247 22 -430 74 -82
23 -262 83 -268 90 -3 3 127 195 131 195 1 0 49 -15 107 -34 221 -71 506 -121
759 -133 133 -6 145 -5 157 12 8 10 14 21 14 24 0 3 -58 7 -129 8 -141 2 -331
23 -486 55 -98 19 -385 95 -393 103 -2 2 22 48 53 103 l58 99 50 -19 c65 -25
227 -62 342 -79 90 -14 418 -19 429 -8 4 3 4 13 1 21 -5 13 -40 16 -213 21
-156 3 -231 10 -302 25 -129 28 -264 62 -277 70 -8 5 5 41 39 107 27 55 51
101 53 103 1 2 47 -10 101 -26 150 -45 424 -87 424 -65 0 20 -38 43 -72 43
-76 0 -399 69 -422 91 -8 7 39 140 63 177 7 11 21 10 77 -7 85 -26 163 -41
168 -32 11 17 -27 41 -85 55 -35 8 -80 21 -100 28 l-37 13 30 77 c27 70 28 80
15 98 -8 12 -17 18 -20 13z"/>
<path d="M1070 11576 c0 -2 22 -48 49 -103 67 -135 92 -219 98 -333 8 -157
-41 -372 -116 -502 -69 -121 -188 -218 -319 -258 -129 -40 -352 -33 -497 15
-69 23 -181 81 -237 122 -47 34 -48 34 -48 11 0 -42 177 -140 325 -179 111
-29 314 -37 413 -15 161 34 304 136 385 274 91 156 150 423 127 581 -22 157
-124 391 -170 391 -5 0 -10 -2 -10 -4z"/>
<path d="M1673 11279 c-47 -56 -49 -61 -30 -77 9 -8 26 5 66 50 43 47 51 62
40 69 -24 15 -33 10 -76 -42z"/>
<path d="M1850 11188 c-114 -124 -116 -127 -98 -144 13 -14 27 -3 116 92 56
59 102 113 102 120 0 8 -10 14 -22 14 -16 0 -47 -26 -98 -82z"/>
<path d="M13116 10999 c-32 -8 -92 -34 -153 -68 -6 -3 -49 -33 -94 -66 -46
-33 -98 -69 -116 -80 -74 -46 -230 -141 -254 -155 -15 -8 -65 -41 -113 -72
-48 -32 -90 -58 -94 -58 -4 0 -32 -18 -62 -41 -30 -22 -72 -50 -92 -60 -21
-11 -61 -37 -90 -58 -28 -22 -63 -45 -77 -52 -14 -7 -42 -24 -61 -38 -19 -15
-60 -42 -92 -62 -32 -20 -56 -38 -53 -40 2 -3 -5 -6 -17 -6 -22 -2 -63 -28
-176 -111 -91 -68 -125 -127 -123 -212 1 -66 31 -147 79 -214 28 -39 33 -50
21 -56 -8 -5 -39 -26 -69 -47 -82 -58 -80 -68 60 -290 150 -237 155 -239 282
-152 32 21 61 39 65 39 10 0 90 -122 109 -166 14 -34 101 -103 137 -109 27 -5
45 0 88 25 77 45 83 51 67 63 -9 6 -8 7 5 3 31 -10 197 92 189 116 -1 5 2 7 8
3 6 -4 41 13 78 36 37 24 117 75 177 114 61 39 122 76 138 83 15 6 27 16 27
22 0 5 4 10 9 10 25 0 223 134 213 145 -4 4 0 6 8 5 27 -4 36 0 68 28 17 15
52 38 79 52 26 13 66 38 88 56 22 17 63 44 90 59 28 16 59 36 70 46 11 9 45
29 75 44 65 33 209 145 210 163 0 7 4 11 9 8 5 -4 17 14 26 38 17 43 17 46 -1
74 -39 61 -80 119 -121 170 -24 29 -43 57 -43 63 0 5 26 25 58 45 67 43 82 59
82 93 0 22 -148 266 -229 379 -39 53 -67 55 -141 7 -30 -19 -59 -34 -65 -34
-5 0 -32 39 -59 87 -79 140 -101 163 -166 177 -8 1 -33 -1 -54 -6z m-1449
-1501 c-3 -8 -6 -5 -6 6 -1 11 2 17 5 13 3 -3 4 -12 1 -19z"/>
<path d="M9170 10729 c-94 -38 -129 -168 -62 -232 84 -80 211 -73 290 17 26
30 32 45 32 83 0 56 -34 106 -87 128 -40 17 -135 19 -173 4z"/>
<path d="M2200 10395 c0 -5 11 -22 24 -40 30 -39 142 -85 297 -122 105 -24
111 -25 129 -8 28 26 25 35 -12 35 -81 0 -372 91 -425 133 -7 5 -13 6 -13 2z"/>
<path d="M18055 10271 c-73 -18 -125 -63 -167 -144 -17 -34 -20 -53 -15 -116
2 -42 12 -89 21 -106 20 -38 20 -43 -5 -118 -32 -95 -24 -218 19 -312 83 -176
270 -349 507 -468 86 -43 317 -130 405 -152 36 -9 97 -35 135 -57 39 -22 86
-49 105 -60 106 -60 100 -52 93 -121 -5 -52 -2 -70 16 -105 12 -23 24 -42 26
-42 3 0 5 59 5 130 0 97 -3 130 -12 130 -7 0 -31 12 -53 26 l-40 25 35 -6 c19
-4 43 -9 53 -11 15 -5 17 2 17 48 0 51 -2 55 -32 71 -106 55 -367 242 -488
351 -171 154 -342 362 -414 504 -30 60 -60 167 -52 187 4 12 13 12 58 -1 57
-17 190 -81 298 -144 77 -45 102 -72 241 -255 91 -120 277 -383 339 -480 l45
-69 3 57 c2 43 -2 64 -16 85 -23 34 -107 199 -117 231 -11 35 5 21 74 -65 l61
-75 0 56 c0 56 -1 58 -67 134 -37 42 -110 116 -163 165 -52 50 -140 137 -195
194 -55 58 -125 128 -155 156 -30 28 -100 95 -155 148 l-100 98 50 -1 c84 0
146 -30 320 -154 162 -116 308 -280 418 -470 l47 -80 0 52 c0 48 -5 60 -69
155 -113 167 -248 302 -417 416 -166 111 -238 138 -342 128 -58 -6 -69 -4
-102 18 -40 26 -131 57 -164 55 -12 -1 -34 -4 -51 -8z m143 -86 c74 -35 68
-52 -26 -73 -71 -16 -135 -63 -177 -131 l-34 -54 -12 29 c-46 118 39 251 161
253 19 1 59 -10 88 -24z m122 -135 c33 -11 72 -28 88 -38 42 -26 105 -99 92
-107 -6 -4 -19 -1 -28 7 -21 18 -157 75 -197 84 -57 11 -57 11 -40 44 8 16 18
30 21 30 2 0 31 -9 64 -20z m-130 2 c0 -21 -29 -41 -69 -47 -32 -5 -42 -4 -36
5 19 30 105 65 105 42z m-25 -149 c14 -88 29 -132 66 -202 42 -78 188 -278
233 -320 14 -14 26 -29 26 -33 0 -35 -314 271 -415 404 -74 98 -76 101 -58
120 24 27 95 62 135 67 4 1 10 -16 13 -36z m-141 -310 c52 -99 153 -229 249
-319 72 -69 247 -207 303 -240 24 -15 12 -29 -13 -15 -10 6 -54 26 -97 46
-202 90 -414 275 -483 420 -39 84 -53 167 -40 235 l10 45 18 -52 c9 -29 34
-83 53 -120z m424 -313 c137 -106 278 -206 430 -302 79 -50 141 -92 139 -95
-3 -2 -41 5 -85 16 -65 16 -104 35 -208 101 -126 80 -239 160 -298 210 -123
104 -161 142 -241 241 -58 71 -125 172 -125 188 0 5 69 -59 153 -142 83 -84
189 -182 235 -217z"/>
<path d="M0 9490 c0 -31 4 -60 9 -65 16 -17 111 -238 105 -244 -3 -3 -12 3
-20 14 -39 55 -51 71 -71 94 l-22 26 -1 -53 c0 -50 4 -60 62 -140 34 -48 73
-100 85 -115 29 -35 29 -39 -1 -73 l-23 -28 -59 89 -59 88 -3 -54 c-2 -39 4
-71 23 -118 13 -36 23 -66 21 -69 -2 -2 -14 1 -25 8 -21 11 -21 10 -21 -188 0
-177 2 -201 17 -214 36 -31 70 -42 135 -42 l67 0 9 -36 c14 -52 122 -355 180
-505 169 -441 359 -800 478 -905 180 -158 443 -70 515 173 12 40 23 73 24 75
1 1 24 -8 51 -22 64 -31 153 -50 198 -42 133 25 155 205 43 370 l-33 50 56 56
c71 71 95 140 88 257 -12 216 -181 386 -574 582 -146 72 -313 136 -526 200
l-163 49 -5 55 c-4 47 -11 61 -49 103 -131 148 -187 185 -256 172 -22 -5 -27
2 -66 101 -61 155 -130 304 -174 381 -14 24 -14 23 -15 -30z m820 -935 c452
-146 810 -365 902 -553 68 -138 43 -287 -60 -361 l-28 -20 -70 66 c-38 36
-103 98 -144 137 -41 39 -94 87 -116 106 -23 19 -45 46 -49 60 -17 55 -76 158
-120 210 -104 121 -238 212 -492 332 -73 35 -133 68 -133 74 0 40 57 30 310
-51z m-322 -94 c50 -50 77 -101 44 -81 -55 32 -96 69 -108 98 -20 49 5 42 64
-17z m228 -21 c61 -31 144 -79 185 -105 89 -57 218 -184 248 -242 21 -42 16
-56 -11 -30 -80 74 -383 308 -503 388 -123 82 -92 78 81 -11z m-320 -88 c33
-53 82 -146 109 -207 105 -241 201 -416 274 -501 20 -23 48 -59 63 -81 15 -22
46 -53 69 -69 38 -26 50 -29 118 -28 59 0 79 -3 91 -16 8 -9 37 -34 64 -54 28
-21 79 -64 114 -97 64 -58 65 -59 60 -102 -12 -103 -87 -208 -177 -249 -60
-28 -153 -27 -207 0 -96 49 -152 125 -308 417 -48 89 -148 313 -201 450 -71
181 -215 587 -215 605 0 3 10 10 23 16 49 25 59 18 123 -84z m419 -116 c44
-33 153 -120 241 -193 173 -143 174 -145 174 -239 0 -23 -4 -45 -8 -48 -4 -2
-30 23 -57 57 -103 128 -246 267 -413 402 -61 49 -122 122 -122 145 0 12 36
-12 185 -124z m-229 40 c46 -33 84 -71 111 -110 23 -34 50 -70 60 -81 10 -11
38 -45 63 -75 67 -83 205 -224 293 -298 87 -73 88 -81 33 -140 l-32 -33 -65
73 c-165 184 -381 459 -507 645 -62 91 -60 92 44 19z m196 -449 c53 -65 129
-154 169 -198 116 -127 116 -129 62 -129 -67 0 -150 67 -198 160 -10 19 -37
67 -60 105 -104 173 -159 295 -97 215 15 -19 71 -87 124 -153z m197 113 c20
-20 47 -49 61 -64 49 -56 -12 -11 -77 57 -95 98 -82 103 16 7z m440 -214 c67
-60 121 -114 121 -119 0 -16 -120 -1 -180 22 -95 38 -99 43 -93 138 4 64 9 81
18 75 8 -4 68 -56 134 -116z m-131 -188 c41 -80 81 -212 69 -224 -9 -9 -82 54
-148 128 l-62 69 25 27 c13 15 32 39 41 55 10 15 21 27 25 27 5 0 27 -37 50
-82z m132 6 c50 -10 95 -13 133 -9 69 8 79 0 134 -113 31 -64 35 -79 31 -129
-4 -44 -10 -61 -29 -76 -34 -27 -126 -18 -213 22 l-66 30 0 48 c0 40 -33 155
-64 226 -5 9 -7 17 -5 17 2 0 38 -7 79 -16z"/>
<path d="M3545 9298 c-28 -66 -197 -649 -191 -663 4 -12 24 -15 86 -15 88 0
89 1 105 73 l6 28 96 -3 97 -3 9 -35 c14 -56 22 -60 107 -60 50 0 81 4 87 13
7 8 4 38 -8 92 -10 44 -41 181 -69 305 -28 124 -55 242 -61 263 l-10 37 -120
0 -119 0 -15 -32z m142 -200 c17 -21 42 -211 31 -225 -15 -19 -114 -17 -122 2
-5 15 25 161 44 211 10 26 32 31 47 12z"/>
<path d="M4076 9314 c-8 -20 -8 -632 0 -661 6 -22 12 -23 90 -23 72 0 85 3 94
19 5 11 10 76 10 146 0 69 4 124 9 121 5 -3 45 -66 91 -141 l82 -135 108 0
c89 0 109 3 114 16 8 20 8 628 0 648 -5 13 -23 16 -88 16 -50 0 -87 -5 -94
-12 -8 -8 -12 -67 -12 -200 0 -103 -4 -188 -8 -188 -5 0 -20 21 -33 48 -13 26
-61 118 -107 205 l-83 157 -84 0 c-66 0 -84 -3 -89 -16z"/>
<path d="M2696 9305 c-8 -21 -8 -628 0 -649 5 -13 24 -16 100 -16 l93 0 3 128
3 127 75 0 75 0 3 -127 3 -128 89 0 90 0 -2 338 -3 337 -85 0 -85 0 -5 -135
-5 -135 -75 0 -75 0 -5 135 -5 135 -91 3 c-77 2 -93 0 -98 -13z"/>
<path d="M4833 9305 l-23 -16 0 -313 c0 -279 2 -315 17 -327 12 -10 51 -14
147 -14 116 0 137 3 181 23 65 30 118 83 147 146 20 44 23 67 23 166 0 110 -2
119 -33 182 -33 68 -64 98 -142 138 -38 20 -63 24 -170 28 -104 3 -129 1 -147
-13z m266 -183 c57 -29 75 -62 75 -140 0 -103 -40 -160 -125 -183 -79 -21 -79
-22 -79 159 0 109 4 162 12 170 17 17 78 15 117 -6z"/>
<path d="M7131 8638 c-51 -34 -73 -78 -74 -147 -1 -105 70 -191 157 -191 89 0
141 67 141 181 0 57 -4 71 -28 103 -57 74 -135 96 -196 54z"/>
<path d="M15792 8476 c-217 -71 -317 -361 -202 -586 27 -53 96 -118 165 -153
55 -29 68 -32 155 -32 85 0 102 3 160 31 89 42 163 116 202 201 27 59 31 79
31 153 0 165 -80 296 -223 363 -54 26 -80 31 -155 34 -58 2 -105 -2 -133 -11z
m48 -228 c25 -28 26 -62 0 -88 -58 -58 -142 20 -94 88 20 29 67 29 94 0z m240
0 c26 -28 26 -62 -2 -88 -28 -25 -62 -26 -88 0 -24 24 -26 57 -4 88 20 29 67
29 94 0z m-237 -220 c9 -11 17 -31 17 -43 0 -26 -43 -65 -71 -65 -28 0 -59 36
-59 68 1 66 69 91 113 40z m240 0 c25 -29 21 -63 -9 -87 -33 -26 -58 -27 -84
-1 -29 29 -26 74 7 99 30 24 58 20 86 -11z"/>
<path d="M13564 8370 c-17 -11 -49 -46 -69 -78 -84 -125 -25 -206 76 -107 41
39 79 112 79 149 0 26 -23 56 -43 56 -7 0 -26 -9 -43 -20z"/>
<path d="M2657 8303 c-29 -3 -40 -10 -47 -29 -13 -34 -13 -605 0 -639 10 -26
10 -26 107 -23 l98 3 3 128 c1 70 6 127 10 127 4 0 30 -58 58 -128 l52 -127
63 -3 c43 -2 65 1 70 10 5 7 30 67 55 133 26 66 50 124 54 128 4 4 10 -51 13
-124 3 -72 10 -136 15 -141 5 -5 56 -7 113 -6 l104 3 -4 238 c-2 131 -7 286
-10 345 l-6 107 -109 0 -110 0 -86 -144 c-47 -80 -90 -146 -95 -148 -6 -1 -37
48 -69 110 -33 61 -70 129 -83 150 l-23 37 -68 -2 c-37 -1 -84 -3 -105 -5z"/>
<path d="M4242 8300 c-18 -4 -36 -11 -40 -15 -4 -4 -8 -150 -10 -325 l-3 -318
25 -19 c58 -46 256 -35 357 18 90 48 129 110 149 234 27 169 -36 326 -155 387
-84 44 -228 61 -323 38z m242 -194 c68 -29 100 -111 77 -203 -22 -84 -70 -130
-142 -134 -74 -4 -69 -16 -69 157 0 88 4 164 10 175 13 23 74 26 124 5z"/>
<path d="M4975 8303 c-104 -3 -152 -7 -157 -16 -10 -15 -10 -658 0 -673 9 -14
451 -29 470 -16 9 6 12 29 10 73 l-3 64 -115 5 -115 5 -3 58 -3 57 83 0 c46 0
89 4 96 9 9 5 12 28 10 77 l-3 69 -85 3 c-47 2 -88 6 -92 10 -10 10 -13 100
-4 110 4 4 58 9 119 12 l112 5 3 63 c4 86 -3 93 -97 90 -42 -1 -143 -4 -226
-5z"/>
<path d="M3707 8293 c-4 -7 -64 -201 -165 -538 -49 -162 -47 -167 46 -164 83
3 98 10 106 50 10 53 21 59 105 59 42 0 81 -4 87 -8 7 -4 17 -26 24 -49 14
-47 26 -53 111 -53 97 0 97 0 54 191 -82 365 -113 498 -120 508 -7 13 -241 16
-248 4z m137 -222 c3 -4 13 -54 22 -111 17 -99 17 -103 -1 -116 -20 -15 -72
-18 -99 -8 -20 8 -20 45 -1 115 8 30 20 71 26 92 7 26 15 37 29 37 10 0 21 -4
24 -9z"/>
<path d="M13827 8143 c-55 -81 -76 -114 -123 -196 -19 -33 -33 -47 -43 -43 -9
2 -65 25 -126 50 -206 85 -404 125 -653 133 -371 12 -707 -64 -1061 -241 -310
-155 -573 -358 -821 -636 -334 -374 -553 -831 -630 -1315 -74 -462 20 -975
253 -1378 32 -54 57 -101 57 -103 0 -2 23 -41 51 -87 165 -263 397 -490 685
-665 397 -243 885 -357 1382 -322 507 35 939 194 1317 483 202 155 451 432
584 652 111 183 230 464 282 669 191 750 21 1509 -472 2099 l-81 98 28 40 c15
23 55 71 89 108 94 102 115 131 115 153 0 14 -32 52 -87 105 -48 45 -90 83
-94 83 -15 0 -114 -136 -260 -355 l-46 -70 91 -90 c376 -372 604 -842 656
-1354 71 -705 -215 -1445 -743 -1920 -345 -310 -734 -488 -1232 -562 -116 -18
-489 -18 -615 -1 -673 92 -1251 474 -1547 1022 -22 41 -58 107 -80 146 -79
141 -148 335 -190 533 -26 118 -27 142 -27 386 -1 277 5 332 60 548 198 786
853 1487 1629 1741 424 138 838 140 1235 4 124 -43 261 -104 359 -162 34 -20
65 -36 69 -36 9 0 68 90 148 223 33 54 74 121 92 149 17 27 32 53 32 57 0 6
-213 131 -224 131 -3 0 -29 -35 -59 -77z"/>
<path d="M8640 8072 c-149 -100 -195 -154 -183 -215 7 -37 178 -226 255 -283
97 -71 181 -81 257 -31 76 50 99 155 61 279 -49 163 -156 281 -268 295 -44 5
-52 2 -122 -45z"/>
<path d="M12540 7905 c-359 -52 -705 -199 -1017 -432 -380 -283 -665 -644
-840 -1063 -250 -600 -225 -1259 68 -1780 23 -41 57 -104 76 -140 90 -169 251
-360 431 -511 277 -231 606 -384 974 -451 108 -20 156 -22 403 -22 224 -1 300
3 380 17 436 77 788 240 1100 510 599 518 885 1329 744 2106 -68 378 -237 724
-502 1026 -214 245 -466 439 -741 570 -193 92 -349 141 -544 170 -118 18 -411
18 -532 0z m499 -141 c477 -69 928 -340 1276 -765 220 -268 376 -634 427 -994
19 -134 16 -427 -5 -565 -36 -235 -104 -445 -212 -660 -53 -105 -173 -303
-194 -320 -4 -3 -26 -30 -49 -60 -75 -97 -244 -259 -357 -345 -292 -219 -596
-344 -970 -400 -129 -19 -439 -22 -584 -5 -528 61 -1019 342 -1323 760 -62 86
-201 331 -247 437 -137 316 -183 695 -126 1043 156 948 981 1758 1915 1879
110 14 336 12 449 -5z"/>
<path d="M12910 7122 c0 -5 -16 -35 -36 -68 -142 -234 -191 -381 -181 -550 2
-44 7 -88 10 -99 3 -11 6 -30 6 -43 l1 -23 33 22 c70 47 124 132 167 258 22
67 51 229 45 257 -2 11 -6 60 -9 109 -2 50 -9 102 -15 118 -10 26 -21 36 -21
19z m-150 -732 c-8 -5 -19 -10 -25 -10 -5 0 -3 5 5 10 8 5 20 10 25 10 6 0 3
-5 -5 -10z"/>
<path d="M12510 7004 c0 -49 4 -105 9 -126 9 -39 59 -119 78 -125 20 -7 45 44
50 107 9 96 -24 161 -109 215 l-28 17 0 -88z"/>
<path d="M13101 6943 c-7 -16 -27 -50 -46 -78 -49 -74 -70 -175 -46 -214 22
-34 113 41 142 115 17 46 15 135 -4 172 -21 39 -30 40 -46 5z"/>
<path d="M13226 6640 c-2 -8 -7 -36 -11 -62 -11 -83 -55 -201 -92 -247 -56
-68 -210 -198 -297 -249 -55 -33 -98 -69 -142 -120 -35 -40 -64 -77 -64 -82 0
-5 19 -1 43 9 23 11 73 22 110 26 200 20 399 148 480 308 30 61 52 196 42 262
-8 52 -62 175 -69 155z"/>
<path d="M12230 6603 c-25 -10 -48 -46 -46 -73 2 -24 42 -120 51 -120 19 0 55
27 55 42 0 10 5 18 10 18 6 0 10 5 10 10 0 6 -4 9 -9 8 -5 -2 -8 2 -8 7 1 6 7
9 14 7 15 -3 18 44 3 53 -5 3 -7 12 -3 20 4 11 1 13 -11 9 -10 -4 -18 0 -22
10 -6 16 -18 19 -44 9z m24 -68 c5 0 11 -6 14 -12 4 -15 -14 -18 -23 -3 -3 5
-12 7 -20 3 -8 -3 -15 -1 -15 4 0 15 12 23 24 15 6 -4 15 -7 20 -7z"/>
<path d="M13173 6557 c-30 -63 -67 -102 -134 -144 -43 -26 -56 -39 -47 -45 9
-6 6 -7 -8 -3 -41 11 -157 -73 -268 -193 -36 -39 -72 -84 -80 -99 -17 -34 -46
-142 -46 -173 0 -20 4 -17 29 18 16 22 35 43 41 47 5 3 7 11 4 17 -4 6 -3 9 2
6 11 -6 83 69 75 78 -3 4 0 4 7 0 15 -9 95 47 84 59 -4 5 -1 5 6 1 16 -10 72
26 111 69 17 19 33 35 37 35 8 0 81 63 83 72 1 4 20 25 42 47 39 41 50 58 27
45 -7 -4 -6 1 3 12 20 24 70 194 57 194 -2 0 -13 -19 -25 -43z m-173 -297 c0
-5 -5 -10 -11 -10 -5 0 -7 5 -4 10 3 6 8 10 11 10 2 0 4 -4 4 -10z"/>
<path d="M13474 6411 c-60 -27 -124 -116 -124 -172 0 -24 43 -26 100 -3 55 22
197 176 172 186 -33 13 -107 7 -148 -11z"/>
<path d="M11483 6255 c-34 -7 -72 -19 -85 -26 -51 -27 -147 -101 -170 -132
-25 -32 -90 -158 -85 -164 2 -1 24 13 50 31 26 19 86 50 134 71 79 34 93 37
177 36 50 -1 109 -5 131 -11 22 -5 56 -10 76 -10 20 0 88 -16 150 -35 97 -30
129 -35 212 -35 53 0 97 4 97 9 0 5 -19 19 -42 31 -23 12 -66 44 -96 71 -57
52 -149 108 -222 135 -124 45 -216 53 -327 29z"/>
<path d="M13505 6146 c-40 -13 -118 -57 -143 -83 -7 -7 -16 -13 -20 -13 -15 0
-94 -79 -88 -88 3 -5 33 -20 66 -32 80 -30 163 -23 319 25 108 33 118 35 173
24 32 -7 61 -9 65 -6 7 8 -39 87 -65 110 -12 11 -26 16 -32 12 -6 -3 -9 -1 -8
6 2 7 -17 23 -42 35 -52 26 -158 31 -225 10z"/>
<path d="M11377 6036 c-15 -7 -24 -16 -20 -21 5 -4 2 -5 -5 0 -16 9 -94 -24
-86 -36 3 -5 -3 -9 -13 -9 -11 0 -28 -7 -39 -16 -18 -14 -18 -14 6 -3 40 20
207 17 258 -3 23 -10 42 -16 42 -13 0 3 10 -1 23 -9 81 -53 390 -85 486 -51
27 10 47 23 44 28 -3 6 -1 7 5 3 11 -7 112 42 112 54 0 3 -46 3 -101 2 -102
-4 -141 2 -250 39 -31 11 -65 17 -75 13 -14 -4 -15 -3 -6 4 16 11 -141 27
-159 16 -8 -4 -9 -3 -5 4 10 17 -180 14 -217 -2z"/>
<path d="M12334 5900 c-21 -8 -79 -69 -86 -91 -4 -11 -11 -9 -33 5 -28 19 -29
19 -46 -3 -10 -12 -19 -27 -22 -34 -3 -9 -7 -9 -19 1 -31 25 -78 32 -108 17
-35 -18 -70 -66 -70 -95 0 -18 -4 -21 -27 -16 -106 22 -186 26 -316 15 -76 -6
-180 -9 -232 -7 -52 3 -95 4 -95 2 0 -8 141 -138 167 -154 93 -56 279 -79 387
-46 61 19 81 10 122 -55 l32 -48 -24 -32 c-30 -41 -32 -112 -7 -183 21 -57 49
-78 112 -86 41 -5 46 -8 53 -37 5 -18 13 -33 19 -33 5 0 18 -20 29 -45 13 -30
25 -45 37 -45 10 0 26 -9 36 -20 16 -19 19 -19 47 -5 16 8 45 15 64 15 39 0
76 31 76 62 0 24 3 23 67 -13 52 -30 58 -31 102 -21 40 9 48 9 58 -6 57 -79
73 -95 120 -119 30 -14 56 -23 59 -20 3 3 1 22 -4 43 -6 22 -13 69 -17 106 -3
37 -15 83 -25 104 -19 36 -19 38 0 93 25 70 25 98 -1 140 l-20 34 50 44 c63
55 73 92 41 158 -27 56 -50 69 -105 61 -52 -8 -68 8 -70 71 -2 52 -21 75 -64
77 -20 1 -37 10 -47 24 -9 13 -27 27 -39 32 -17 6 -26 20 -31 45 -9 49 -45 75
-103 74 -25 0 -55 -4 -67 -9z m76 -34 c0 -3 -4 -8 -10 -11 -5 -3 -10 -1 -10 4
0 6 5 11 10 11 6 0 10 -2 10 -4z m-340 -106 c0 -5 -4 -10 -10 -10 -5 0 -10 5
-10 10 0 6 5 10 10 10 6 0 10 -4 10 -10z m267 -186 c3 -8 16 -14 29 -14 19 0
24 -5 24 -25 0 -18 5 -25 19 -25 30 0 73 -62 66 -93 -5 -20 -2 -27 14 -32 12
-3 28 -13 36 -22 14 -14 14 -17 1 -32 -8 -9 -16 -29 -18 -46 -2 -22 -12 -34
-41 -49 -36 -19 -40 -19 -51 -4 -9 12 -16 14 -30 6 -21 -12 -46 -4 -46 16 0 7
-11 17 -25 20 -14 4 -25 13 -25 22 0 8 -11 26 -25 40 -16 16 -25 35 -24 52 1
15 -2 46 -6 69 -6 35 -4 44 8 49 9 3 19 22 23 42 4 21 11 40 17 43 14 9 48 -2
54 -17z m503 -104 c0 -5 -5 -10 -11 -10 -5 0 -7 5 -4 10 3 6 8 10 11 10 2 0 4
-4 4 -10z m-780 -310 c0 -5 -4 -10 -10 -10 -5 0 -10 5 -10 10 0 6 5 10 10 10
6 0 10 -4 10 -10z"/>
<path d="M13621 5857 c-46 -16 -49 -32 -12 -66 46 -43 92 -61 182 -71 45 -5
90 -12 101 -16 18 -5 17 -2 -6 43 -33 66 -82 102 -154 113 -69 12 -68 12 -111
-3z"/>
<path d="M12860 5836 c-25 -13 -54 -34 -65 -46 -19 -22 -19 -22 5 -40 64 -49
194 -57 275 -19 42 21 115 95 115 117 0 4 -64 8 -143 9 -133 3 -145 1 -187
-21z"/>
<path d="M13382 5518 c-7 -7 -12 -18 -12 -25 0 -6 -7 -16 -15 -21 -9 -4 -23
-34 -31 -66 l-15 -58 27 -23 c14 -12 24 -29 22 -36 -3 -8 -1 -22 4 -32 9 -17
11 -17 35 -2 13 9 31 14 39 11 16 -6 44 41 44 74 0 11 7 20 15 20 25 0 28 28
6 56 -15 20 -18 31 -11 44 17 33 12 42 -19 35 -24 -5 -32 -2 -41 14 -12 24
-30 27 -48 9z m48 -48 c0 -5 -4 -10 -10 -10 -5 0 -10 5 -10 10 0 6 5 10 10 10
6 0 10 -4 10 -10z m30 -15 c0 -8 -4 -15 -10 -15 -5 0 -10 7 -10 15 0 8 5 15
10 15 6 0 10 -7 10 -15z m-60 -25 c0 -5 -4 -10 -9 -10 -6 0 -13 5 -16 10 -3 6
1 10 9 10 9 0 16 -4 16 -10z m30 -32 c0 -16 -3 -19 -11 -11 -6 6 -8 16 -5 22
11 17 16 13 16 -11z m-40 -24 c0 -8 -4 -14 -10 -14 -5 0 -10 9 -10 21 0 11 5
17 10 14 6 -3 10 -13 10 -21z m90 16 c0 -5 -4 -10 -10 -10 -5 0 -10 5 -10 10
0 6 5 10 10 10 6 0 10 -4 10 -10z m-50 -50 c0 -5 -7 -10 -16 -10 -8 0 -12 5
-9 10 3 6 10 10 16 10 5 0 9 -4 9 -10z m30 -15 c0 -8 -4 -15 -10 -15 -5 0 -10
7 -10 15 0 8 5 15 10 15 6 0 10 -7 10 -15z m-60 -35 c0 -5 -4 -10 -10 -10 -5
0 -10 5 -10 10 0 6 5 10 10 10 6 0 10 -4 10 -10z"/>
<path d="M12891 5012 c1 -14 110 -92 120 -87 5 4 8 3 7 -2 -4 -10 74 -104 80
-98 3 2 -1 13 -9 22 -13 16 -12 17 4 4 10 -8 16 -19 14 -25 -6 -16 12 -48 23
-41 6 4 7 -1 3 -11 -4 -12 -3 -15 5 -10 8 4 10 2 6 -7 -3 -8 -1 -18 5 -22 6
-3 11 0 11 7 0 8 5 6 11 -5 6 -9 14 -15 18 -13 4 3 8 -1 8 -9 0 -13 -4 -12
-19 2 -10 9 -18 12 -18 7 0 -13 93 -100 103 -96 5 1 5 -3 1 -9 -5 -9 -2 -10 9
-6 10 4 14 2 11 -6 -6 -16 44 -69 58 -61 7 5 8 2 3 -6 -6 -10 -4 -12 9 -7 9 4
15 3 12 -2 -9 -14 30 -42 50 -35 14 4 15 3 6 -4 -10 -7 8 -15 65 -30 95 -26
143 -36 143 -30 0 3 -24 17 -53 32 -70 35 -115 81 -173 174 -78 127 -100 153
-195 237 -81 71 -100 86 -127 96 -41 16 -192 48 -191 41z m299 -267 c0 -11
-14 7 -31 40 -7 13 -3 12 10 -5 11 -14 21 -29 21 -35z"/>
<path d="M12880 4975 c0 -4 7 -19 15 -35 8 -16 24 -71 34 -122 42 -209 157
-370 319 -450 64 -32 72 -33 182 -33 112 1 117 2 190 37 64 32 71 37 45 38
-55 1 -215 38 -262 61 -63 30 -235 206 -309 315 -41 60 -77 100 -129 139 -68
52 -85 62 -85 50z"/>
<path d="M13337 4913 c-23 -22 14 -103 76 -167 54 -56 125 -81 203 -71 l55 7
-26 24 c-15 13 -31 22 -36 19 -5 -3 -6 0 -3 8 3 8 -20 40 -58 79 -48 49 -77
70 -121 86 -61 23 -79 26 -90 15z"/>
<path d="M9484 6702 c-97 -70 -220 -229 -414 -532 -61 -96 -113 -177 -115
-179 -3 -2 -12 2 -21 10 -14 11 -18 10 -34 -11 -32 -41 -80 -147 -96 -210 -19
-76 -7 -129 37 -161 70 -50 164 -31 246 50 53 52 106 140 108 181 1 15 40 87
87 161 136 212 313 510 331 557 50 126 -28 207 -129 134z m96 -42 c12 -22 4
-60 -14 -72 -49 -33 -102 35 -60 76 22 22 61 20 74 -4z m-118 -90 c11 -20 28
-33 48 -36 16 -4 30 -9 30 -11 0 -8 -80 -142 -198 -333 -165 -265 -203 -322
-216 -317 -6 3 -19 8 -28 12 -13 5 -22 -4 -42 -42 -34 -68 -78 -113 -110 -113
-20 0 -26 5 -26 21 0 19 56 128 93 182 10 14 9 19 -2 26 -16 11 -5 33 120 224
169 261 284 417 307 417 4 0 15 -14 24 -30z"/>
<path d="M3810 6594 c-69 -18 -122 -55 -176 -121 -67 -82 -88 -148 -88 -273 0
-91 4 -112 26 -160 72 -156 243 -251 401 -222 222 42 369 253 323 468 -35 166
-142 275 -303 309 -83 18 -113 18 -183 -1z m24 -225 c32 -25 34 -64 4 -96 -41
-44 -108 -15 -108 46 0 30 38 71 65 71 7 0 24 -9 39 -21z m240 0 c35 -28 35
-70 0 -98 -33 -26 -58 -27 -84 -1 -29 29 -26 74 6 99 15 12 32 21 39 21 7 0
24 -9 39 -21z m-237 -221 c27 -26 30 -58 6 -86 -30 -34 -59 -37 -88 -8 -30 30
-32 69 -5 96 26 26 58 25 87 -2z m240 0 c62 -58 -24 -150 -87 -93 -26 23 -26
69 0 95 26 26 58 25 87 -2z"/>
<path d="M773 6155 c-58 -29 -183 -154 -256 -257 -99 -140 -177 -322 -149
-350 20 -20 136 48 223 130 135 127 231 298 254 455 9 56 2 59 -72 22z m-53
-135 c11 -11 20 -23 20 -28 0 -17 -32 -52 -47 -52 -21 0 -53 29 -53 47 0 15
35 53 50 53 6 0 19 -9 30 -20z m-95 -170 c0 -32 -3 -35 -32 -38 -27 -3 -35 1
-44 22 -16 35 3 58 45 54 28 -3 31 -6 31 -38z m-103 -97 c21 -18 24 -53 6 -71
-19 -19 -66 -15 -78 7 -14 28 -13 38 10 61 24 24 38 25 62 3z"/>
<path d="M17170 6056 c0 -2 17 -33 38 -68 20 -35 73 -141 117 -234 43 -93 81
-171 83 -174 6 -8 21 24 28 57 5 27 -9 63 -90 228 l-96 195 -40 0 c-22 0 -40
-2 -40 -4z"/>
<path d="M16998 6043 c-25 -6 -23 -18 12 -69 l31 -44 -36 0 c-34 0 -35 -1 -35
-41 l0 -41 60 5 c60 6 61 6 80 -26 11 -18 20 -37 20 -42 0 -6 -33 -16 -72 -23
-40 -7 -161 -35 -268 -62 -107 -26 -224 -54 -259 -61 -56 -11 -65 -15 -76 -43
-7 -17 -12 -32 -10 -34 7 -7 156 24 375 78 129 32 262 61 296 65 l60 7 28 -51
c27 -50 27 -71 2 -71 -7 0 -75 -18 -152 -39 -76 -21 -209 -58 -294 -81 l-156
-42 -88 37 c-48 20 -90 34 -92 32 -3 -3 -6 -17 -7 -33 -2 -27 3 -30 133 -84
74 -31 174 -75 222 -98 48 -23 90 -42 93 -42 3 0 5 17 3 38 -3 36 -5 38 -75
67 -40 17 -73 33 -73 37 0 7 51 24 150 51 85 24 374 99 384 101 5 0 14 -11 20
-26 8 -23 7 -30 -10 -43 -47 -36 -202 -120 -268 -145 l-71 -27 -2 -44 -3 -44
68 -34 c157 -78 418 -243 600 -379 109 -82 113 -84 132 -67 11 10 20 22 20 27
0 6 -30 58 -67 116 -66 106 -95 161 -377 732 -139 281 -241 451 -269 449 -7
-1 -20 -3 -29 -6z m390 -771 c34 -75 91 -192 126 -260 35 -67 61 -122 59 -122
-8 0 -209 155 -225 175 -24 28 -141 262 -136 274 4 12 90 71 103 70 6 0 38
-62 73 -137z m-231 21 c3 -10 23 -55 44 -100 21 -46 35 -83 32 -83 -3 0 -17 8
-31 18 -15 10 -67 40 -117 67 l-90 49 70 32 c83 39 84 39 92 17z"/>
<path d="M17453 5987 c22 -58 63 -147 68 -147 3 0 13 16 22 35 22 45 7 79 -45
106 -44 22 -52 24 -45 6z"/>
<path d="M16855 5915 c-5 -1 -57 -17 -115 -35 -75 -23 -114 -41 -137 -63 -18
-17 -33 -35 -33 -39 0 -12 62 0 166 32 51 16 109 32 128 36 33 6 36 9 36 40 0
33 -10 40 -45 29z"/>
<path d="M17576 5782 c-16 -31 -16 -33 28 -120 82 -163 288 -500 317 -518 5
-3 9 8 9 25 0 16 2 36 5 43 3 8 -28 66 -70 130 -67 104 -235 401 -235 417 0 3
-9 17 -19 30 l-19 24 -16 -31z"/>
<path d="M1691 5699 c-23 -9 -23 -10 -5 -37 36 -55 18 -145 -61 -302 -97 -192
-285 -420 -388 -469 -41 -20 -57 -22 -108 -17 l-59 7 0 -40 c0 -28 8 -48 27
-71 25 -30 30 -32 79 -28 73 6 147 53 255 163 208 211 384 504 397 660 9 113
-49 170 -137 134z"/>
<path d="M6377 5703 c-13 -12 -7 -22 41 -75 27 -29 131 -145 231 -258 101
-113 191 -206 202 -208 42 -7 26 15 -150 213 -69 77 -127 142 -130 145 -3 3
-40 43 -81 90 -92 104 -98 109 -113 93z"/>
<path d="M17461 5539 c-16 -47 -16 -49 44 -174 87 -182 238 -421 303 -478 20
-18 21 -18 31 2 17 31 14 41 -32 100 -71 92 -163 246 -242 407 -41 84 -75 157
-75 163 0 23 -18 10 -29 -20z"/>
<path d="M16380 5247 c0 -33 1 -34 88 -67 48 -18 150 -62 227 -97 77 -35 146
-67 153 -70 8 -3 12 6 12 31 0 37 0 37 -97 82 -96 45 -316 136 -360 149 -21 6
-23 3 -23 -28z"/>
<path d="M16377 5054 c-3 -3 0 -20 6 -39 9 -31 19 -37 136 -87 69 -29 130 -52
135 -50 5 2 6 -48 2 -122 -7 -122 -6 -125 16 -140 12 -9 25 -16 29 -16 9 0 18
72 20 163 2 75 3 78 24 73 27 -7 95 -35 95 -40 0 -1 -9 -45 -20 -97 -28 -133
-27 -155 9 -167 l29 -10 7 51 c7 54 35 187 41 198 2 4 21 1 41 -6 43 -15 43
-20 19 -105 -8 -30 -18 -81 -22 -112 -6 -49 -4 -58 9 -58 8 0 22 -3 31 -6 11
-4 16 4 21 33 10 64 37 177 46 195 8 14 14 15 40 6 30 -10 30 -11 23 -64 -3
-30 -3 -83 1 -119 7 -65 7 -65 38 -65 l32 0 -3 105 c-3 97 -2 105 15 105 36 0
52 -24 68 -105 9 -44 20 -84 24 -88 4 -4 20 -3 35 3 19 7 26 15 22 28 -12 39
-26 115 -23 119 3 2 48 -12 100 -32 92 -35 97 -35 127 -20 16 8 30 19 30 23 0
12 -159 71 -433 161 -235 78 -250 81 -262 64 -15 -20 -31 -11 -37 21 -2 11
-16 23 -33 29 -38 12 -245 95 -352 140 -44 20 -83 33 -86 31z"/>
<path d="M16900 5017 c0 -31 4 -35 97 -82 53 -28 100 -51 104 -53 4 -2 11 11
17 27 l11 31 -103 55 c-57 30 -108 55 -115 55 -6 0 -11 -15 -11 -33z"/>
<path d="M5004 4920 c-32 -12 -41 -30 -59 -115 -10 -44 -20 -83 -24 -87 -3 -4
-32 -1 -64 6 -70 16 -50 11 -124 34 -42 14 -129 6 -173 -16 -34 -17 -35 -19
-71 -167 -20 -82 -51 -208 -69 -280 -18 -71 -34 -141 -35 -155 -1 -14 -8 -45
-14 -69 -7 -23 -10 -50 -6 -59 3 -9 3 -13 -2 -9 -12 13 -67 -228 -56 -246 3
-6 1 -7 -5 -3 -7 4 -12 6 -12 4 0 -19 -23 -134 -34 -173 -7 -27 -23 -93 -35
-145 -11 -52 -28 -126 -37 -165 -8 -38 -19 -92 -24 -118 -5 -27 -18 -74 -28
-105 -25 -74 -47 -238 -38 -285 4 -20 17 -48 29 -62 23 -26 32 -28 227 -56 41
-5 79 -14 84 -19 4 -4 0 -42 -10 -83 -16 -71 -16 -77 -1 -101 10 -14 33 -29
54 -35 109 -29 395 -91 417 -91 40 0 62 30 76 104 7 36 17 66 24 66 6 0 61
-14 121 -30 151 -41 192 -39 237 12 33 38 79 169 99 284 11 65 22 121 25 126
3 4 9 29 14 56 10 59 48 210 59 237 10 24 34 141 35 173 1 12 4 22 7 22 3 0
14 35 24 78 37 162 53 239 65 297 6 33 15 74 20 90 5 17 14 55 20 85 5 30 12
64 14 75 2 11 11 41 20 66 9 26 17 59 19 75 2 16 9 47 15 69 39 147 16 255
-68 319 -46 34 -139 73 -197 82 -49 7 -49 9 -28 98 15 63 8 98 -22 114 -10 6
-90 26 -178 47 -88 20 -185 42 -215 49 -31 7 -64 10 -76 6z m-367 -176 c-3 -3
-12 -4 -19 -1 -8 3 -5 6 6 6 11 1 17 -2 13 -5z m-456 -2052 c-7 -2 -18 1 -23
6 -8 8 -4 9 13 5 13 -4 18 -8 10 -11z"/>
<path d="M3068 4903 c-94 -59 -86 -213 17 -291 106 -81 230 -17 227 117 -2 80
-50 156 -115 180 -41 16 -98 13 -129 -6z"/>
<path d="M17152 4895 c-7 -14 -12 -28 -12 -30 0 -5 74 -46 235 -131 61 -32
135 -71 166 -88 l55 -30 27 20 c14 10 26 21 26 24 1 4 -453 248 -478 258 -4 1
-13 -9 -19 -23z"/>
<path d="M6851 4892 c-16 -30 -71 -172 -71 -183 0 -6 5 -9 11 -7 10 3 42 71
74 160 15 39 3 62 -14 30z"/>
<path d="M9554 4636 c-87 -21 -148 -68 -209 -161 -70 -105 -84 -264 -36 -387
23 -60 112 -168 137 -168 8 0 14 -5 14 -11 0 -6 9 -9 20 -6 11 3 18 1 15 -3
-3 -5 18 -16 46 -25 107 -36 262 -5 352 71 46 39 100 111 92 124 -3 6 -1 9 5
8 24 -6 52 120 47 205 -6 95 -36 163 -107 240 -54 59 -107 89 -195 112 -70 18
-111 18 -181 1z m21 -231 c14 -13 25 -33 25 -45 0 -29 -44 -70 -74 -70 -27 0
-66 41 -66 70 0 29 39 70 66 70 14 0 36 -11 49 -25z m240 0 c14 -13 25 -33 25
-45 0 -29 -44 -70 -74 -70 -27 0 -66 41 -66 70 0 29 39 70 66 70 14 0 36 -11
49 -25z m-253 -204 c32 -16 42 -50 26 -86 -21 -46 -101 -46 -118 1 -14 36 -2
72 29 88 14 8 28 13 31 12 3 -1 17 -8 32 -15z m252 -7 c23 -16 26 -75 6 -99
-13 -16 -56 -20 -85 -9 -42 17 -40 95 3 118 28 15 47 12 76 -10z"/>
<path d="M6680 4565 c-20 -24 37 -87 115 -127 66 -35 190 -26 190 12 0 12 -13
14 -66 12 -82 -4 -124 12 -183 72 -37 38 -46 43 -56 31z"/>
<path d="M6985 4114 c-67 -14 -104 -28 -109 -40 -8 -22 11 -26 68 -13 120 26
233 -10 333 -108 50 -48 83 -62 83 -34 0 17 -131 131 -178 155 -26 13 -71 29
-100 35 -54 11 -63 12 -97 5z"/>
<path d="M7784 4101 c-78 -48 -173 -228 -124 -238 10 -3 21 12 32 44 25 70 66
128 109 154 36 22 47 48 24 56 -5 1 -24 -5 -41 -16z"/>
<path d="M1635 3709 c-499 -52 -910 -352 -1140 -831 -86 -180 -148 -385 -170
-570 l-7 -58 319 0 319 0 -3 168 c-6 242 26 397 57 281 19 -71 28 -148 36
-301 l6 -148 75 0 75 0 -9 233 c-13 373 -3 604 33 720 8 24 30 21 38 -5 52
-182 65 -295 73 -649 l6 -299 71 0 71 0 0 143 c0 146 18 271 39 264 24 -8 56
-195 56 -334 l0 -73 95 0 95 0 -7 308 c-6 303 -2 368 29 510 16 73 37 67 61
-18 41 -152 50 -252 60 -710 l2 -85 48 -3 47 -3 1 188 c1 187 13 293 36 300
21 7 45 -136 53 -312 5 -93 9 -171 9 -172 1 -2 35 -3 76 -3 l76 0 -8 203 c-11
277 -9 538 5 622 27 160 48 184 76 85 37 -133 46 -220 58 -562 l12 -348 53 0
53 0 0 108 c0 112 15 230 30 246 21 21 60 -168 60 -291 l0 -63 65 0 65 0 -6
143 c-6 129 5 286 22 332 29 74 73 -155 74 -377 l0 -98 305 0 305 0 0 24 c0
50 -43 244 -75 341 -161 485 -534 861 -1007 1016 -224 73 -486 102 -713 78z"/>
<path d="M18600 3299 c-77 -48 -121 -133 -101 -198 31 -104 119 -135 219 -76
37 22 79 90 88 142 7 48 -15 103 -54 133 -34 27 -106 27 -152 -1z"/>
<path d="M15103 2978 c-18 -24 -206 -666 -200 -683 6 -13 21 -15 89 -13 l82 3
14 48 13 48 97 -3 96 -3 9 -35 c14 -56 22 -60 109 -60 91 0 96 5 81 78 -41
196 -138 609 -146 620 -6 8 -44 12 -122 12 -78 0 -116 -4 -122 -12z m134 -220
c15 -24 40 -217 29 -228 -5 -5 -34 -10 -62 -10 -69 0 -72 11 -40 136 27 105
50 137 73 102z"/>
<path d="M15626 2974 c-9 -24 -7 -657 3 -672 5 -9 31 -12 92 -10 l84 3 5 140
c3 86 9 139 15 137 6 -1 46 -62 91 -135 l80 -132 109 -3 c80 -2 111 1 117 10
9 15 11 628 2 652 -5 13 -23 16 -88 16 -50 0 -87 -5 -94 -12 -8 -8 -12 -67
-12 -200 0 -103 -4 -188 -9 -188 -4 0 -27 37 -51 83 -41 80 -96 182 -148 280
l-25 47 -83 0 c-65 0 -83 -3 -88 -16z"/>
<path d="M14252 2968 c-18 -18 -17 -651 1 -666 14 -11 118 -15 159 -6 l27 5 3
127 3 127 75 0 75 0 3 -127 3 -127 34 -7 c18 -3 53 -4 77 -1 24 4 49 6 56 6
10 1 12 72 10 339 l-3 337 -85 0 -85 0 -5 -135 -5 -135 -75 0 -75 0 -5 135 -5
135 -85 3 c-58 2 -89 -1 -98 -10z"/>
<path d="M16383 2965 l-23 -16 0 -313 c0 -279 2 -315 17 -327 11 -10 53 -15
132 -17 101 -3 124 -1 175 18 120 46 183 136 193 281 12 176 -47 295 -177 357
-48 23 -70 27 -175 30 -99 3 -124 0 -142 -13z m285 -192 c38 -28 55 -69 55
-134 0 -98 -54 -169 -141 -185 -64 -12 -67 -6 -67 170 0 128 3 159 15 167 23
15 108 4 138 -18z"/>
<path d="M1243 2934 c-13 -30 -8 -343 6 -406 24 -112 41 -54 41 137 -1 191
-24 326 -47 269z"/>
<path d="M2296 2904 c-16 -121 5 -432 29 -427 19 4 29 173 18 308 -11 129 -18
165 -33 165 -4 0 -10 -21 -14 -46z"/>
<path d="M1815 2823 c-10 -40 -7 -310 5 -377 5 -33 14 -64 20 -70 5 -5 10 -8
11 -5 22 143 8 479 -21 479 -4 0 -11 -12 -15 -27z"/>
<path d="M984 2557 c-10 -26 2 -257 14 -269 22 -22 24 230 1 272 -6 13 -9 12
-15 -3z"/>
<path d="M2047 2564 c-9 -9 -9 -184 -1 -236 13 -75 24 -35 23 80 -1 119 -8
170 -22 156z"/>
<path d="M2755 2515 c-7 -60 2 -200 15 -225 14 -25 23 77 16 174 -4 50 -11 95
-15 99 -5 5 -12 -17 -16 -48z"/>
<path d="M12215 2471 c-201 -95 -508 -432 -601 -658 -55 -134 -12 -237 91
-217 l32 6 -14 41 c-18 52 -11 92 33 179 85 170 212 325 381 464 96 80 163 98
261 68 20 -6 22 -3 22 35 0 45 -13 78 -39 98 -29 22 -102 15 -166 -16z"/>
<path d="M1520 2372 c0 -106 2 -122 16 -122 15 0 16 13 12 110 -3 65 -9 115
-16 122 -9 9 -12 -17 -12 -110z"/>
<path d="M2547 2434 c-4 -4 -7 -47 -7 -96 0 -72 3 -88 15 -88 12 0 15 14 14
73 -1 78 -10 123 -22 111z"/>
<path d="M10210 2358 c0 -10 22 -21 65 -33 187 -50 353 -241 441 -505 26 -80
28 -96 29 -255 0 -146 -3 -180 -21 -241 -106 -352 -382 -626 -829 -822 -119
-52 -336 -123 -510 -166 -77 -19 -189 -51 -250 -71 -125 -41 -383 -166 -465
-225 l-55 -40 34 0 c19 0 42 6 50 14 33 29 197 118 297 161 117 50 241 89 423
135 821 206 1300 610 1363 1151 22 186 -22 396 -119 569 -68 120 -192 244
-293 293 -87 42 -160 58 -160 35z"/>
<path d="M9183 2348 c-31 -15 -29 -34 8 -65 16 -14 28 -31 25 -38 -2 -7 4 -21
14 -30 10 -9 20 -28 22 -42 2 -14 13 -32 25 -41 21 -13 25 -12 52 17 38 41 45
74 25 116 -27 57 -72 95 -113 94 -20 0 -46 -5 -58 -11z"/>
<path d="M9025 2249 c-159 -113 -234 -173 -228 -182 3 -6 2 -7 -4 -4 -6 4 -30
-10 -54 -31 -53 -45 -49 -42 -175 -141 -56 -44 -186 -144 -290 -222 -104 -78
-201 -151 -215 -163 -14 -12 -38 -30 -53 -41 -66 -48 -221 -170 -224 -177 -2
-4 -8 -8 -14 -8 -11 0 -98 -69 -140 -110 -40 -40 -78 -124 -78 -170 0 -75 98
-145 176 -126 22 6 99 50 114 66 3 3 106 86 230 185 124 99 232 185 240 192 8
7 79 64 158 127 79 63 162 131 185 150 23 20 83 68 132 107 50 39 100 81 111
93 12 11 34 30 50 41 15 11 68 54 118 95 50 41 98 80 106 87 8 6 30 24 48 39
l34 27 -27 25 c-14 13 -24 30 -21 37 2 7 -6 23 -19 35 -14 13 -21 29 -18 40 4
13 -4 23 -26 34 -17 9 -31 23 -31 31 0 22 -8 19 -85 -36z m30 -156 c23 -22 13
-68 -22 -103 -33 -33 -109 -98 -144 -123 -288 -206 -343 -250 -459 -361 -71
-68 -159 -141 -230 -188 -63 -42 -163 -119 -222 -171 -112 -100 -162 -127
-198 -107 -31 17 -27 77 8 126 45 61 178 180 377 336 6 5 60 48 120 96 158
125 356 275 536 407 142 103 198 125 234 88z"/>
<path d="M14220 1963 c-24 -3 -50 -9 -57 -15 -10 -8 -13 -84 -13 -332 0 -176
4 -327 8 -334 6 -9 35 -12 108 -10 l99 3 3 128 c1 70 6 127 10 127 4 0 30 -58
58 -128 l50 -127 60 -3 c32 -1 64 1 70 5 5 5 25 49 44 98 18 50 43 110 54 135
l21 45 5 -130 c3 -71 9 -136 13 -142 9 -14 193 -18 213 -5 16 9 -2 660 -18
680 -8 9 -38 12 -112 10 l-100 -3 -77 -130 c-87 -145 -108 -175 -115 -160 -2
6 -39 73 -82 150 l-77 140 -60 1 c-33 0 -80 -1 -105 -3z"/>
<path d="M15789 1963 c-16 -2 -31 -14 -38 -29 -16 -37 -15 -624 2 -647 19 -26
151 -41 238 -27 93 14 150 42 203 100 55 63 78 133 78 244 0 194 -80 308 -247
351 -54 14 -172 18 -236 8z m267 -207 c83 -55 76 -245 -11 -302 -31 -20 -102
-36 -126 -29 -18 6 -19 18 -19 169 0 116 4 166 13 175 16 17 110 8 143 -13z"/>
<path d="M16590 1960 l-225 -5 0 -345 0 -345 228 -9 c176 -6 231 -5 242 4 10
8 15 30 15 60 0 81 2 80 -119 80 -118 0 -131 5 -131 56 0 61 4 64 94 64 44 0
87 4 94 9 9 5 12 28 10 77 l-3 69 -85 3 c-46 2 -90 8 -97 14 -18 15 -16 83 3
102 12 13 38 16 119 16 117 0 115 -2 115 85 0 42 -4 56 -17 62 -10 4 -119 6
-243 3z"/>
<path d="M15256 1952 c-4 -7 -78 -247 -136 -442 -77 -258 -72 -234 -53 -247
17 -13 119 -18 147 -7 8 3 20 22 27 42 18 58 25 62 101 62 84 0 103 -9 119
-57 6 -21 17 -41 23 -46 17 -11 144 -6 161 7 13 10 6 53 -60 344 -41 183 -77
337 -80 342 -7 12 -242 14 -249 2z m158 -325 c21 -124 17 -137 -44 -137 -79 0
-83 12 -49 143 23 89 34 109 58 105 12 -2 21 -30 35 -111z"/>
<path d="M358 1665 c-7 -7 30 -135 65 -225 109 -289 316 -548 567 -712 70 -45
266 -143 350 -175 290 -110 657 -114 965 -12 267 89 553 280 738 494 134 154
242 338 306 518 17 49 31 95 31 103 0 12 -45 14 -278 14 l-279 0 -6 -161 c-5
-148 -9 -180 -21 -168 -3 2 -10 54 -16 114 -6 61 -13 134 -16 163 l-5 52 -74
0 -73 0 -7 -230 c-7 -211 -13 -264 -28 -226 -3 8 -14 114 -24 235 l-18 221
-67 0 -68 0 -1 -182 c0 -218 -13 -516 -23 -525 -3 -4 -10 -2 -16 3 -8 8 -39
309 -55 524 -3 47 -8 106 -11 133 l-6 47 -87 0 -88 0 -6 -67 c-4 -38 -7 -112
-7 -165 0 -90 -9 -121 -24 -83 -3 8 -11 82 -17 165 l-12 150 -62 0 -62 0 -7
-287 c-9 -403 -16 -513 -31 -513 -16 0 -20 26 -40 235 -12 136 -45 534 -45
558 0 4 -48 6 -107 5 l-108 -3 -5 -202 c-5 -182 -12 -241 -24 -202 -5 17 -23
190 -32 317 l-7 93 -86 -3 -86 -3 -7 -330 c-4 -181 -10 -340 -13 -352 -6 -27
-22 -30 -29 -5 -6 20 -32 295 -49 527 l-12 160 -91 3 -91 3 -7 -163 c-8 -160
-10 -177 -22 -165 -5 5 -33 262 -34 310 0 16 -22 17 -313 17 -173 0 -316 -2
-319 -5z"/>
<path d="M12992 1609 c-143 -49 -292 -174 -391 -328 -36 -55 -91 -191 -91
-223 0 -18 5 -20 39 -15 104 14 335 229 443 412 45 78 60 117 56 147 l-3 25
-53 -18z m-48 -115 c31 -30 9 -84 -34 -84 -26 0 -50 27 -50 55 0 40 54 59 84
29z m-106 -147 c2 -16 -2 -35 -9 -43 -29 -35 -85 9 -68 54 7 19 15 23 41 20
28 -2 34 -8 36 -31z m-128 -105 c45 -36 1 -99 -50 -72 -24 13 -26 52 -4 74 20
20 27 20 54 -2z"/>
<path d="M4902 1135 c-125 -48 -323 -173 -512 -322 -132 -104 -308 -241 -318
-247 -8 -5 -19 1 -31 15 l-18 23 -58 -49 c-165 -142 -234 -269 -191 -353 46
-88 145 -117 263 -78 94 31 249 149 237 181 -3 6 32 41 78 76 313 241 666 534
705 586 20 26 28 50 31 92 4 53 2 59 -23 79 -36 29 -83 27 -163 -3z m119 -46
c21 -21 20 -59 -3 -86 -13 -16 -70 -17 -86 -1 -21 21 -14 65 14 87 34 26 49
26 75 0z m-138 -122 c9 -14 26 -29 38 -32 l21 -7 -23 -22 c-36 -33 -522 -423
-617 -495 l-84 -63 -22 21 c-30 28 -36 27 -77 -15 -40 -43 -125 -94 -155 -94
-28 0 -47 24 -40 48 7 20 143 139 184 161 22 12 22 14 8 30 -20 22 -22 20 364
313 176 133 220 163 315 215 l60 32 6 -34 c3 -18 13 -45 22 -58z"/>
<path d="M17790 884 c-77 -17 -130 -38 -192 -76 -90 -56 -198 -113 -558 -293
-45 -23 -77 -44 -73 -48 4 -5 1 -6 -7 -3 -8 3 -26 -1 -40 -9 -14 -8 -59 -32
-100 -53 -41 -21 -86 -46 -101 -55 -38 -25 -203 -112 -299 -157 -156 -74 -263
-138 -254 -152 3 -4 -1 -5 -9 -2 -7 2 -25 -4 -38 -15 l-24 -20 1133 -1 c622 0
1132 2 1132 5 0 2 -11 24 -24 49 -27 51 -28 49 47 87 50 25 87 61 87 86 0 8
-47 105 -105 217 -129 249 -130 250 -237 194 l-69 -36 -59 122 c-32 67 -67
129 -77 137 -34 30 -74 37 -133 23z"/>
</g>
</svg>
